<svg xmlns="http://www.w3.org/2000/svg" xmlns:xlink="http://www.w3.org/1999/xlink" width="200" zoomAndPan="magnify" viewBox="0 0 150 149.999998" height="200" preserveAspectRatio="xMidYMid meet" version="1.0"><defs><clipPath id="e1e0787941"><path d="M 86 54 L 95.632812 54 L 95.632812 67 L 86 67 Z M 86 54 " clip-rule="nonzero"/></clipPath><clipPath id="5e7c9b3208"><path d="M 17.632812 53 L 35 53 L 35 101 L 17.632812 101 Z M 17.632812 53 " clip-rule="nonzero"/></clipPath><clipPath id="7efff5f540"><path d="M 88 72 L 141.75 72 L 141.75 126 L 88 126 Z M 88 72 " clip-rule="nonzero"/></clipPath><clipPath id="a0c79df15b"><path d="M 87 71.773438 L 141.75 71.773438 L 141.75 126 L 87 126 Z M 87 71.773438 " clip-rule="nonzero"/></clipPath><clipPath id="b6eca5f029"><path d="M 75 91 L 111 91 L 111 132.523438 L 75 132.523438 Z M 75 91 " clip-rule="nonzero"/></clipPath></defs><path fill="#476d39" d="M 64.503906 85.429688 C 63.816406 82.160156 63.886719 77.34375 64.71875 70.976562 C 64.71875 70.972656 64.71875 70.972656 64.71875 70.96875 C 65.488281 65.664062 66.777344 60.769531 68.59375 56.289062 C 72.3125 47.09375 78.242188 38.863281 86.390625 31.59375 C 86.605469 31.398438 86.9375 31.417969 87.128906 31.632812 C 87.320312 31.847656 87.304688 32.175781 87.089844 32.367188 C 79.0625 39.53125 73.21875 47.632812 69.5625 56.675781 C 67.777344 61.082031 66.507812 65.898438 65.753906 71.117188 L 65.753906 71.109375 C 64.941406 77.359375 64.863281 82.0625 65.527344 85.21875 C 65.585938 85.5 65.402344 85.773438 65.121094 85.832031 C 64.839844 85.890625 64.5625 85.710938 64.503906 85.429688 Z M 64.503906 85.429688 " fill-opacity="1" fill-rule="nonzero"/><path fill="#476d39" d="M 33.082031 25.441406 C 41.515625 33.820312 44.867188 50.566406 43.128906 75.675781 C 43.109375 75.964844 42.859375 76.179688 42.574219 76.160156 C 42.285156 76.140625 42.066406 75.890625 42.085938 75.605469 C 43.800781 50.808594 40.554688 34.335938 32.34375 26.179688 C 32.140625 25.976562 32.140625 25.644531 32.34375 25.441406 C 32.546875 25.238281 32.878906 25.238281 33.082031 25.441406 Z M 33.082031 25.441406 " fill-opacity="1" fill-rule="nonzero"/><path fill="#476d39" d="M 22.566406 34.246094 C 27.71875 38.449219 31.746094 44.265625 34.652344 51.691406 L 34.652344 51.6875 C 37.664062 59.160156 39.273438 67.675781 39.476562 77.238281 C 39.480469 77.527344 39.253906 77.761719 38.964844 77.769531 C 38.675781 77.777344 38.4375 77.546875 38.429688 77.261719 C 38.230469 67.824219 36.648438 59.429688 33.683594 52.074219 C 33.679688 52.074219 33.679688 52.070312 33.679688 52.070312 C 30.839844 44.8125 26.914062 39.140625 21.90625 35.054688 C 21.683594 34.871094 21.648438 34.542969 21.832031 34.320312 C 22.015625 34.097656 22.34375 34.066406 22.566406 34.246094 Z M 22.566406 34.246094 " fill-opacity="1" fill-rule="nonzero"/><path fill="#476d39" d="M 62.46875 86.726562 C 62.367188 84.367188 63.867188 81.691406 66.976562 78.691406 C 66.980469 78.691406 66.980469 78.6875 66.984375 78.683594 C 68.183594 77.574219 69.59375 76.511719 71.214844 75.492188 C 71.226562 75.484375 71.242188 75.476562 71.253906 75.46875 C 78.707031 71.636719 83.335938 68.933594 85.140625 67.355469 C 85.152344 67.347656 85.160156 67.339844 85.171875 67.332031 C 87.722656 65.414062 89.71875 62.957031 91.160156 59.953125 C 91.285156 59.695312 91.597656 59.585938 91.859375 59.710938 C 92.117188 59.835938 92.226562 60.144531 92.101562 60.40625 C 90.585938 63.558594 88.484375 66.144531 85.800781 68.164062 L 85.832031 68.140625 C 83.960938 69.773438 79.261719 72.523438 71.734375 76.394531 L 71.769531 76.375 C 70.203125 77.355469 68.84375 78.382812 67.695312 79.449219 L 67.703125 79.441406 C 64.820312 82.222656 63.421875 84.636719 63.511719 86.679688 C 63.527344 86.964844 63.304688 87.210938 63.015625 87.222656 C 62.726562 87.234375 62.484375 87.011719 62.46875 86.726562 Z M 62.46875 86.726562 " fill-opacity="1" fill-rule="nonzero"/><path fill="#476d39" d="M 37.527344 32.734375 C 36.417969 32.730469 35.214844 32.113281 33.917969 30.886719 C 31.953125 28.9375 30.667969 27.195312 30.0625 25.660156 C 29.585938 24.457031 29.75 23.523438 30.542969 22.863281 C 31.375 22.296875 32.441406 22.316406 33.746094 22.929688 C 36.839844 24.808594 38.128906 28.09375 37.617188 32.78125 Z M 37.527344 32.734375 " fill-opacity="1" fill-rule="nonzero"/><path fill="#476d39" d="M 40.125 39.09375 C 40.015625 36.179688 40.847656 34.003906 42.621094 32.554688 C 43.734375 31.808594 44.527344 31.589844 45.003906 31.902344 C 46.074219 32.714844 46.484375 33.570312 46.234375 34.46875 C 46.074219 35.09375 45.367188 35.886719 44.113281 36.855469 C 43.273438 37.53125 42.152344 38.121094 40.75 38.628906 Z M 40.125 39.09375 " fill-opacity="1" fill-rule="nonzero"/><path fill="#476d39" d="M 39.964844 39.015625 C 38.8125 39.957031 37.503906 40.28125 36.039062 39.988281 C 33.691406 39.324219 31.910156 38.351562 30.691406 37.070312 C 30.035156 36.25 30.003906 35.578125 30.601562 35.058594 C 31.414062 34.554688 32.503906 34.421875 33.871094 34.660156 C 34.925781 34.859375 36.050781 35.367188 37.246094 36.183594 C 38.445312 37.039062 39.3125 37.933594 39.839844 38.867188 Z M 39.964844 39.015625 " fill-opacity="1" fill-rule="nonzero"/><path fill="#476d39" d="M 41.703125 44.472656 C 41.625 44.019531 41.917969 43.335938 42.574219 42.421875 C 43.179688 41.636719 43.9375 40.96875 44.839844 40.417969 C 46.554688 39.375 48.015625 39.210938 49.214844 39.929688 C 49.761719 40.386719 49.921875 40.996094 49.695312 41.761719 C 49.457031 42.464844 48.890625 43.109375 47.992188 43.699219 C 46.265625 44.777344 44.238281 45.089844 41.914062 44.636719 Z M 41.703125 44.472656 " fill-opacity="1" fill-rule="nonzero"/><path fill="#476d39" d="M 41.644531 44.730469 C 40.839844 45.691406 39.4375 45.964844 37.4375 45.546875 C 35.019531 44.972656 33.574219 44.113281 33.109375 42.96875 C 32.921875 42.3125 33.183594 41.746094 33.886719 41.277344 C 34.503906 40.878906 35.339844 40.761719 36.382812 40.917969 C 37.460938 41.101562 38.492188 41.515625 39.476562 42.160156 C 40.640625 42.976562 41.320312 43.691406 41.511719 44.304688 Z M 41.644531 44.730469 " fill-opacity="1" fill-rule="nonzero"/><path fill="#476d39" d="M 26.390625 38.8125 C 25.460938 39.242188 24.121094 38.773438 22.371094 37.40625 C 20.359375 35.746094 19.003906 34.097656 18.3125 32.460938 C 17.859375 31.277344 18.003906 30.480469 18.753906 30.074219 C 19.617188 29.714844 20.640625 29.917969 21.816406 30.675781 C 23.382812 31.683594 24.769531 34.046875 25.976562 37.769531 Z M 26.390625 38.8125 " fill-opacity="1" fill-rule="nonzero"/><path fill="#476d39" d="M 30.816406 45.910156 C 29.890625 46.367188 29.214844 46.621094 28.785156 46.671875 C 28.183594 46.773438 27.472656 46.753906 26.648438 46.613281 C 24.355469 46.125 22.875 45.394531 22.210938 44.425781 C 21.878906 43.847656 21.984375 43.347656 22.523438 42.925781 C 23.066406 42.550781 23.832031 42.429688 24.824219 42.566406 C 25.5 42.664062 26.234375 42.929688 27.027344 43.359375 C 28.496094 44.195312 29.71875 44.980469 30.699219 45.710938 Z M 30.816406 45.910156 " fill-opacity="1" fill-rule="nonzero"/><path fill="#476d39" d="M 30.777344 46.007812 C 30.253906 45.0625 30.171875 43.75 30.539062 42.066406 C 30.9375 40.46875 31.609375 39.1875 32.5625 38.222656 C 33.617188 37.148438 34.402344 36.710938 34.921875 36.902344 C 35.816406 37.292969 36.230469 37.992188 36.167969 38.996094 C 35.773438 41.1875 34.398438 43.09375 32.042969 44.71875 Z M 30.777344 46.007812 " fill-opacity="1" fill-rule="nonzero"/><path fill="#476d39" d="M 35.195312 53.683594 C 34.550781 54.273438 33.71875 54.632812 32.691406 54.761719 C 31.328125 54.9375 29.96875 54.886719 28.609375 54.605469 C 26.246094 54.09375 25.027344 53.054688 24.957031 51.488281 C 25.007812 50.660156 25.410156 50.066406 26.164062 49.707031 C 26.984375 49.335938 27.980469 49.261719 29.152344 49.488281 C 31.152344 49.824219 33.164062 51.15625 35.199219 53.488281 Z M 35.195312 53.683594 " fill-opacity="1" fill-rule="nonzero"/><path fill="#476d39" d="M 34.167969 54.453125 C 33.769531 53.847656 33.640625 53.035156 33.785156 52.015625 C 33.953125 50.992188 34.359375 50.054688 35.011719 49.203125 C 35.671875 48.320312 36.503906 47.644531 37.5 47.175781 C 38.535156 46.703125 39.34375 46.628906 39.917969 46.945312 C 40.796875 47.601562 40.742188 48.714844 39.746094 50.28125 C 38.875 51.644531 37.1875 53.128906 34.683594 54.742188 Z M 34.167969 54.453125 " fill-opacity="1" fill-rule="nonzero"/><path fill="#476d39" d="M 71.136719 51.644531 C 69.238281 50.851562 67.875 49.617188 67.050781 47.9375 C 66.136719 46.046875 65.96875 44.191406 66.550781 42.378906 C 66.90625 41.496094 67.425781 41.0625 68.101562 41.070312 C 68.792969 41.179688 69.40625 41.703125 69.9375 42.636719 C 70.367188 43.425781 70.707031 44.589844 70.964844 46.136719 C 71.335938 48.351562 71.464844 50.007812 71.355469 51.105469 Z M 71.136719 51.644531 " fill-opacity="1" fill-rule="nonzero"/><path fill="#476d39" d="M 71.5625 51.179688 C 71.972656 50.761719 72.957031 50.410156 74.515625 50.117188 C 75.832031 49.914062 77.117188 49.898438 78.378906 50.074219 C 80.945312 50.484375 82.582031 51.410156 83.296875 52.839844 C 83.167969 54.332031 82.066406 55.039062 79.980469 54.960938 C 76.734375 54.609375 74 53.679688 71.78125 52.171875 Z M 71.5625 51.179688 " fill-opacity="1" fill-rule="nonzero"/><path fill="#476d39" d="M 74.058594 46.40625 C 73.09375 45.855469 72.394531 44.585938 71.960938 42.597656 C 71.585938 40.707031 71.644531 38.984375 72.144531 37.425781 C 72.714844 35.824219 73.480469 34.742188 74.445312 34.183594 C 75.457031 33.644531 76.171875 33.855469 76.589844 34.816406 C 76.941406 35.746094 76.941406 37.179688 76.59375 39.117188 C 76.296875 40.714844 75.703125 42.375 74.820312 44.089844 Z M 74.058594 46.40625 " fill-opacity="1" fill-rule="nonzero"/><path fill="#476d39" d="M 74.449219 45.988281 C 74.664062 45.570312 75.472656 45.058594 76.878906 44.453125 C 78.601562 43.710938 80.167969 43.191406 81.578125 42.894531 C 84.773438 42.316406 86.847656 42.421875 87.800781 43.214844 C 88.390625 43.851562 88.371094 44.652344 87.734375 45.617188 C 87.113281 46.382812 86.058594 46.960938 84.578125 47.347656 C 81.007812 48.148438 77.824219 47.878906 75.019531 46.535156 Z M 74.449219 45.988281 " fill-opacity="1" fill-rule="nonzero"/><path fill="#476d39" d="M 79.839844 37.964844 C 80.148438 35.40625 81.726562 32.613281 84.566406 29.582031 C 87.402344 26.875 89.996094 25.585938 92.355469 25.710938 C 93.605469 25.953125 94.179688 26.78125 94.074219 28.203125 C 93.910156 29.527344 93.058594 31.023438 91.523438 32.6875 C 89.53125 34.953125 85.828125 36.742188 80.40625 38.050781 Z M 79.839844 37.964844 " fill-opacity="1" fill-rule="nonzero"/><g clip-path="url(#e1e0787941)"><path fill="#476d39" d="M 86.984375 66.285156 C 88.269531 58.515625 90.386719 54.574219 93.34375 54.46875 C 94.359375 54.480469 94.996094 54.996094 95.257812 56.011719 C 95.507812 57.050781 95.300781 58.246094 94.640625 59.601562 C 92.96875 62.46875 90.566406 64.695312 87.433594 66.277344 Z M 86.984375 66.285156 " fill-opacity="1" fill-rule="nonzero"/></g><path fill="#476d39" d="M 80.058594 71.203125 C 79.605469 70.90625 79.195312 70.117188 78.828125 68.828125 C 78.546875 67.71875 78.488281 66.667969 78.652344 65.664062 C 79.207031 63.003906 80.25 61.101562 81.785156 59.957031 C 82.757812 59.351562 83.558594 59.316406 84.183594 59.847656 C 84.765625 60.390625 84.925781 61.292969 84.660156 62.550781 C 83.640625 65.917969 81.816406 68.996094 79.179688 71.785156 Z M 80.058594 71.203125 " fill-opacity="1" fill-rule="nonzero"/><path fill="#476d39" d="M 79.265625 71.582031 C 80.074219 71.210938 81.644531 71.0625 83.972656 71.140625 C 85.632812 71.242188 87.027344 71.550781 88.148438 72.074219 C 89.28125 72.628906 90.011719 73.320312 90.34375 74.148438 C 90.59375 75.183594 90.339844 75.953125 89.578125 76.457031 C 88.777344 76.957031 87.652344 76.953125 86.210938 76.441406 C 85.742188 76.269531 85.21875 76.03125 84.652344 75.722656 C 81.957031 74.136719 80.535156 73.324219 80.398438 73.292969 C 79.679688 72.925781 78.917969 72.609375 78.105469 72.339844 Z M 79.265625 71.582031 " fill-opacity="1" fill-rule="nonzero"/><path fill="#fef0e8" d="M 47.160156 47.511719 L 48.089844 44.179688 C 50.125 36.84375 51.558594 31.910156 52.386719 29.382812 C 53.203125 26.914062 53.890625 25.261719 54.449219 24.425781 C 57.988281 24.203125 64.804688 25.371094 74.898438 27.925781 C 72.402344 32.804688 70.675781 36.605469 69.714844 39.324219 C 68.707031 41.992188 67.480469 46.273438 66.039062 52.171875 L 47.160156 47.511719 " fill-opacity="1" fill-rule="nonzero"/><path fill="#5c4e4e" d="M 55.445312 26.746094 L 50.34375 44.019531 L 64.992188 47.296875 C 65.890625 42.457031 66.546875 39.566406 66.949219 38.621094 C 67.492188 36.894531 68.847656 33.898438 71.015625 29.632812 C 67.300781 28.652344 64.582031 28.007812 62.867188 27.707031 C 61.125 27.367188 58.648438 27.046875 55.445312 26.746094 " fill-opacity="1" fill-rule="nonzero"/><path fill="#eec2ac" d="M 31.265625 108.863281 L 43.25 108.839844 C 42.921875 107.402344 42.867188 106.429688 43.085938 105.921875 C 43.1875 105.570312 43.335938 105.222656 43.523438 104.878906 C 44.667969 102.988281 45.285156 101.863281 45.375 101.503906 C 45.652344 100.761719 45.777344 100.046875 45.753906 99.351562 C 45.921875 98.441406 45.164062 95.277344 43.480469 89.859375 L 33.675781 87.421875 L 31.265625 108.863281 " fill-opacity="1" fill-rule="nonzero"/><path fill="#c97c5a" d="M 39.808594 48.242188 L 39.539062 48.296875 C 38.199219 48.304688 37 49.574219 35.945312 52.109375 C 35.367188 53.546875 34.777344 55.269531 34.183594 57.28125 C 32.335938 63.304688 31.355469 66.777344 31.242188 67.699219 C 29.957031 75.027344 30.175781 80.277344 31.898438 83.457031 C 32.519531 84.636719 33.355469 85.597656 34.402344 86.339844 C 36.003906 87.425781 37.808594 88.210938 39.804688 88.6875 C 42.578125 89.429688 48.457031 90.503906 57.441406 91.902344 C 60.691406 92.328125 62.910156 92.355469 64.09375 91.992188 C 67.101562 91.398438 69.230469 89.390625 70.480469 85.96875 C 70.769531 83.152344 71.160156 80.613281 71.652344 78.347656 C 73.035156 73.550781 73.945312 69.644531 74.390625 66.632812 C 74.714844 64.203125 74.867188 61.449219 74.851562 58.371094 C 75.242188 57.539062 75.445312 56.78125 75.460938 56.089844 C 75.464844 54.640625 75.25 53.511719 74.8125 52.703125 C 74.589844 52.25 74.152344 51.886719 73.5 51.609375 C 72.835938 51.328125 71.484375 50.96875 69.4375 50.523438 C 64.660156 49.53125 56.730469 48.066406 45.648438 46.132812 C 44.199219 45.933594 43.195312 45.949219 42.636719 46.175781 C 42.328125 46.15625 41.382812 46.84375 39.808594 48.242188 " fill-opacity="1" fill-rule="nonzero"/><path fill="#5c4e4e" d="M 60.230469 77.085938 C 59.511719 83.382812 53.808594 87.910156 47.488281 87.195312 C 41.167969 86.480469 36.625 80.792969 37.34375 74.496094 C 38.058594 68.195312 43.765625 63.667969 50.085938 64.382812 C 56.40625 65.097656 60.949219 70.785156 60.230469 77.085938 M 59.695312 77.023438 C 60.382812 71.019531 56.050781 65.597656 50.023438 64.914062 C 44 64.234375 38.558594 68.550781 37.875 74.554688 C 37.191406 80.5625 41.523438 85.984375 47.546875 86.664062 C 53.574219 87.347656 59.011719 83.03125 59.695312 77.023438 Z M 59.695312 77.023438 " fill-opacity="1" fill-rule="nonzero"/><path fill="#5c4e4e" d="M 57.035156 76.140625 C 57.039062 80.8125 53.246094 84.601562 48.558594 84.609375 C 43.875 84.613281 40.070312 80.832031 40.066406 76.164062 C 40.0625 71.492188 43.855469 67.703125 48.539062 67.695312 C 53.226562 67.691406 57.027344 71.472656 57.035156 76.140625 M 56.496094 76.144531 C 56.492188 71.769531 52.929688 68.226562 48.539062 68.230469 C 44.152344 68.234375 40.597656 71.785156 40.601562 76.160156 C 40.609375 80.535156 44.171875 84.078125 48.558594 84.074219 C 52.949219 84.070312 56.5 80.519531 56.496094 76.144531 Z M 56.496094 76.144531 " fill-opacity="1" fill-rule="nonzero"/><path fill="#5c4e4e" d="M 51.8125 76.582031 L 51.664062 77.0625 C 51.277344 78.019531 50.636719 78.703125 49.734375 79.121094 C 48.832031 79.539062 47.871094 79.570312 46.855469 79.21875 C 45.898438 78.832031 45.210938 78.191406 44.792969 77.296875 C 44.65625 77.003906 44.5625 76.703125 44.507812 76.382812 L 44.453125 75.902344 C 44.441406 75.574219 44.472656 75.242188 44.546875 74.910156 C 44.8125 73.890625 45.363281 73.117188 46.203125 72.59375 C 47.046875 72.070312 47.984375 71.914062 49.019531 72.125 C 50.042969 72.386719 50.816406 72.9375 51.339844 73.777344 C 51.867188 74.613281 52.023438 75.550781 51.8125 76.582031 " fill-opacity="1" fill-rule="nonzero"/><g clip-path="url(#5e7c9b3208)"><path fill="#5c4e4e" d="M 34.742188 54.882812 C 31.707031 58.300781 28.8125 61.574219 27.917969 63.585938 C 27.527344 64.46875 27.539062 65.085938 27.558594 65.808594 C 27.578125 66.574219 27.601562 67.449219 27.078125 68.628906 C 27.035156 68.71875 26.992188 68.8125 26.945312 68.90625 C 26.460938 69.886719 25.597656 71.082031 24.71875 72.300781 C 23.660156 73.765625 22.558594 75.300781 21.84375 76.734375 C 21.679688 77.070312 21.539062 77.390625 21.425781 77.703125 C 20.824219 79.347656 20.953125 80.796875 21.105469 82.402344 C 21.203125 83.460938 21.3125 84.605469 21.164062 85.832031 C 21.019531 87.046875 20.621094 88.328125 20.238281 89.570312 C 19.816406 90.929688 19.40625 92.269531 19.246094 93.605469 C 19.179688 94.136719 19.15625 94.660156 19.1875 95.179688 C 19.332031 97.550781 20.425781 99.019531 20.898438 99.019531 C 20.988281 99.019531 21.394531 98.921875 21.882812 97.75 C 23 95.046875 23.785156 88.441406 24.449219 82.824219 C 24.671875 80.9375 24.878906 79.175781 25.078125 77.75 C 25.859375 72.207031 26.558594 71.488281 27.582031 70.949219 L 27.296875 71.238281 C 28.472656 68.949219 29.628906 66.695312 30.667969 63.882812 C 31.714844 61.066406 32.644531 57.679688 33.585938 54.257812 L 34.742188 54.882812 M 33.730469 53.988281 C 33.941406 53.753906 34.28125 53.691406 34.558594 53.84375 C 34.835938 53.992188 34.972656 54.3125 34.890625 54.613281 C 33.953125 58.019531 33.007812 61.46875 31.9375 64.351562 C 30.867188 67.246094 29.675781 69.566406 28.5 71.851562 C 28.4375 71.976562 28.335938 72.078125 28.214844 72.140625 C 27.875 72.320312 27.210938 72.316406 26.417969 77.9375 C 26.21875 79.347656 26.015625 81.089844 25.792969 82.980469 C 25.144531 88.476562 24.34375 95.339844 23.132812 98.261719 C 22.621094 99.492188 21.898438 100.367188 20.898438 100.367188 C 19.035156 100.367188 17.964844 97.375 17.839844 95.261719 C 17.800781 94.648438 17.832031 94.042969 17.902344 93.445312 C 18.078125 91.96875 18.53125 90.511719 18.945312 89.175781 C 19.339844 87.902344 19.691406 86.746094 19.824219 85.671875 C 19.949219 84.609375 19.859375 83.605469 19.757812 82.53125 C 19.609375 80.9375 19.4375 79.207031 20.152344 77.242188 C 20.285156 76.875 20.449219 76.507812 20.632812 76.136719 C 21.402344 74.582031 22.578125 72.953125 23.621094 71.511719 C 24.523438 70.257812 25.308594 69.167969 25.734375 68.308594 C 25.773438 68.230469 25.808594 68.15625 25.839844 68.082031 C 26.234375 67.1875 26.222656 66.566406 26.207031 65.839844 C 26.1875 65.078125 26.164062 64.210938 26.679688 63.042969 C 27.679688 60.78125 30.777344 57.3125 33.730469 53.988281 Z M 33.730469 53.988281 " fill-opacity="1" fill-rule="nonzero"/></g><path fill="#c97c5a" d="M 34.429688 56.90625 L 34.226562 56.777344 C 33.46875 56.3125 32.984375 55.867188 32.78125 55.445312 C 32.65625 55.207031 32.605469 54.9375 32.621094 54.640625 C 32.636719 54.34375 32.707031 54.046875 32.832031 53.753906 C 32.957031 53.460938 33.113281 53.207031 33.308594 52.988281 C 33.488281 52.777344 33.710938 52.621094 33.980469 52.523438 C 34.386719 52.378906 34.996094 52.425781 35.804688 52.660156 L 34.429688 56.90625 " fill-opacity="1" fill-rule="nonzero"/><path fill="#5c4e4e" d="M 45.636719 65.097656 L 45.3125 64.898438 C 46.449219 64.316406 47.617188 63.710938 49.40625 63.570312 C 49.671875 63.550781 49.949219 63.539062 50.238281 63.539062 C 51.890625 63.539062 53.917969 63.890625 55.910156 64.722656 C 58.25 65.695312 60.550781 67.335938 62.269531 69.699219 C 63.980469 72.058594 65.125 75.160156 64.664062 78.125 C 64.207031 81.089844 62.144531 83.890625 59.460938 85.398438 C 56.78125 86.910156 53.480469 87.128906 50.246094 87.347656 C 50.121094 87.355469 50.015625 87.261719 50.007812 87.140625 C 50 87.019531 50.09375 86.910156 50.214844 86.902344 C 53.472656 86.683594 56.664062 86.464844 59.242188 85.011719 C 61.820312 83.5625 63.789062 80.878906 64.226562 78.058594 C 64.664062 75.242188 63.574219 72.257812 61.90625 69.960938 C 60.242188 67.667969 58.011719 66.078125 55.738281 65.132812 C 53.800781 64.324219 51.832031 63.984375 50.238281 63.984375 C 49.960938 63.984375 49.695312 63.996094 49.441406 64.015625 C 47.746094 64.148438 46.648438 64.710938 45.515625 65.292969 C 45.449219 65.328125 45.367188 65.328125 45.300781 65.285156 C 45.234375 65.246094 45.191406 65.175781 45.191406 65.097656 C 45.191406 64.972656 45.292969 64.875 45.414062 64.875 C 45.539062 64.875 45.636719 64.972656 45.636719 65.097656 Z M 45.636719 65.097656 " fill-opacity="1" fill-rule="nonzero"/><path fill="#5c4e4e" d="M 52.414062 54.710938 C 52.371094 53.929688 52.300781 52.980469 52.726562 52.488281 C 52.980469 52.191406 53.378906 52.085938 53.742188 52.085938 C 54.03125 52.085938 54.328125 52.152344 54.566406 52.277344 C 55.121094 52.566406 55.3125 53.136719 55.25 53.636719 C 55.1875 54.128906 54.886719 54.570312 54.625 54.957031 L 54.664062 54.824219 L 54.664062 54.832031 C 54.691406 55.875 54.75 57.179688 54.066406 57.632812 C 53.871094 57.761719 53.636719 57.808594 53.40625 57.808594 C 52.789062 57.808594 52.027344 57.457031 51.746094 56.9375 C 51.355469 56.207031 51.984375 55.292969 52.449219 54.578125 L 52.414062 54.710938 M 52.859375 54.6875 C 52.863281 54.734375 52.851562 54.78125 52.824219 54.820312 C 52.28125 55.652344 51.902344 56.285156 52.140625 56.726562 C 52.320312 57.0625 52.902344 57.363281 53.40625 57.363281 C 53.578125 57.363281 53.722656 57.328125 53.820312 57.261719 C 54.242188 56.984375 54.25 56.042969 54.21875 54.839844 L 54.21875 54.835938 C 54.21875 54.789062 54.230469 54.746094 54.257812 54.707031 C 54.53125 54.300781 54.761719 53.949219 54.808594 53.582031 C 54.851562 53.222656 54.714844 52.859375 54.359375 52.671875 C 54.191406 52.585938 53.964844 52.53125 53.742188 52.53125 C 53.449219 52.53125 53.203125 52.617188 53.066406 52.777344 C 52.785156 53.101562 52.808594 53.808594 52.859375 54.6875 Z M 52.859375 54.6875 " fill-opacity="1" fill-rule="nonzero"/><path fill="#5c4e4e" d="M 54.269531 53.960938 L 54.253906 54.035156 C 54.207031 54.175781 54.121094 54.28125 54 54.351562 C 53.878906 54.421875 53.742188 54.4375 53.597656 54.394531 C 53.464844 54.347656 53.363281 54.261719 53.296875 54.136719 C 53.277344 54.09375 53.261719 54.050781 53.25 54.003906 L 53.238281 53.9375 C 53.234375 53.886719 53.238281 53.839844 53.246094 53.789062 C 53.273438 53.640625 53.347656 53.519531 53.460938 53.4375 C 53.574219 53.351562 53.703125 53.320312 53.847656 53.339844 C 53.992188 53.367188 54.105469 53.441406 54.183594 53.558594 C 54.265625 53.675781 54.292969 53.808594 54.269531 53.960938 " fill-opacity="1" fill-rule="nonzero"/><path fill="#5c4e4e" d="M 53.753906 56.289062 L 53.734375 56.359375 C 53.6875 56.5 53.597656 56.605469 53.46875 56.675781 C 53.339844 56.742188 53.203125 56.753906 53.050781 56.710938 C 52.90625 56.664062 52.800781 56.574219 52.734375 56.449219 C 52.710938 56.40625 52.695312 56.363281 52.683594 56.316406 L 52.671875 56.246094 C 52.667969 56.199219 52.671875 56.152344 52.679688 56.101562 C 52.710938 55.949219 52.785156 55.832031 52.902344 55.75 C 53.019531 55.667969 53.15625 55.636719 53.308594 55.660156 C 53.460938 55.6875 53.578125 55.761719 53.660156 55.882812 C 53.746094 56 53.777344 56.136719 53.753906 56.289062 " fill-opacity="1" fill-rule="nonzero"/><path fill="#5c4e4e" d="M 40.800781 61.152344 C 40.5625 62.273438 39.460938 62.988281 38.335938 62.753906 C 37.210938 62.515625 36.492188 61.417969 36.730469 60.296875 C 36.96875 59.175781 38.070312 58.460938 39.195312 58.695312 C 40.316406 58.933594 41.035156 60.03125 40.800781 61.152344 M 40.363281 61.058594 C 40.550781 60.179688 39.984375 59.316406 39.101562 59.132812 C 38.21875 58.945312 37.351562 59.507812 37.167969 60.390625 C 36.980469 61.269531 37.546875 62.132812 38.429688 62.316406 C 39.3125 62.503906 40.175781 61.941406 40.363281 61.058594 Z M 40.363281 61.058594 " fill-opacity="1" fill-rule="nonzero"/><path fill="#5c4e4e" d="M 38.90625 50.789062 L 37.566406 55.777344 L 37.390625 55.5 L 40.917969 56.09375 L 40.660156 56.273438 L 41.570312 51.242188 L 41.75 51.503906 L 38.652344 50.949219 L 38.90625 50.789062 M 38.476562 50.675781 C 38.507812 50.5625 38.617188 50.492188 38.730469 50.511719 L 41.828125 51.066406 C 41.886719 51.074219 41.9375 51.109375 41.972656 51.15625 C 42.007812 51.203125 42.019531 51.265625 42.007812 51.324219 L 41.101562 56.351562 C 41.078125 56.472656 40.964844 56.554688 40.84375 56.53125 L 37.316406 55.9375 C 37.253906 55.925781 37.199219 55.890625 37.164062 55.839844 C 37.132812 55.785156 37.121094 55.722656 37.136719 55.660156 Z M 38.476562 50.675781 " fill-opacity="1" fill-rule="nonzero"/><path fill="#5c4e4e" d="M 39.429688 51.746094 L 38.78125 54.777344 C 39.511719 54.929688 40.246094 55.082031 40.976562 55.234375 C 41.152344 54.1875 41.324219 53.144531 41.5 52.097656 C 40.808594 51.980469 40.121094 51.863281 39.429688 51.746094 " fill-opacity="1" fill-rule="nonzero"/><path fill="#5c4e4e" d="M 38.890625 50.757812 L 39.695312 51.914062 L 39.332031 52.167969 L 38.523438 51.011719 L 38.890625 50.757812 M 38.523438 51.011719 C 38.453125 50.910156 38.476562 50.773438 38.578125 50.703125 C 38.679688 50.632812 38.820312 50.65625 38.890625 50.757812 L 39.695312 51.914062 C 39.765625 52.015625 39.742188 52.15625 39.640625 52.226562 C 39.539062 52.292969 39.402344 52.269531 39.332031 52.167969 Z M 38.523438 51.011719 " fill-opacity="1" fill-rule="nonzero"/><path fill="#5c4e4e" d="M 37.421875 55.320312 L 38.746094 54.488281 C 38.847656 54.421875 38.984375 54.453125 39.050781 54.558594 C 39.117188 54.660156 39.085938 54.796875 38.984375 54.863281 L 37.660156 55.699219 C 37.558594 55.761719 37.421875 55.734375 37.355469 55.628906 C 37.289062 55.523438 37.320312 55.386719 37.421875 55.320312 Z M 37.421875 55.320312 " fill-opacity="1" fill-rule="nonzero"/><path fill="#5c4e4e" d="M 46.847656 48.984375 L 46.828125 48.992188 C 45.992188 49.289062 45.308594 50.164062 44.773438 51.613281 C 44.160156 53.226562 43.8125 55.089844 43.730469 57.199219 C 43.734375 57.648438 43.800781 57.980469 43.921875 58.195312 C 43.964844 58.273438 44.015625 58.347656 44.074219 58.414062 C 44.097656 58.457031 44.203125 58.539062 44.394531 58.671875 C 45.082031 59.03125 45.855469 59.085938 46.714844 58.835938 C 47.113281 58.714844 47.453125 58.515625 47.730469 58.238281 C 47.984375 57.929688 48.140625 57.707031 48.203125 57.574219 C 48.304688 57.390625 48.398438 57.203125 48.480469 57.007812 C 48.640625 56.617188 48.777344 56.214844 48.882812 55.796875 C 48.917969 55.691406 49.09375 54.96875 49.410156 53.628906 C 49.507812 53.214844 49.585938 52.796875 49.644531 52.378906 C 49.703125 51.851562 49.722656 51.539062 49.714844 51.433594 C 49.707031 50.925781 49.667969 50.597656 49.589844 50.445312 C 49.445312 50.082031 49.210938 49.769531 48.886719 49.511719 C 48.292969 49.054688 47.613281 48.878906 46.847656 48.984375 " fill-opacity="1" fill-rule="nonzero"/><path fill="#eec2ac" d="M 39.980469 86.371094 L 40.113281 86.503906 C 41.164062 87.683594 42.152344 87.984375 43.078125 87.398438 C 44.375 86.683594 44.5625 85.765625 43.648438 84.644531 C 38.636719 78.507812 34.613281 75.125 31.582031 74.492188 C 31.195312 74.472656 30.777344 74.691406 30.332031 75.144531 C 28.671875 76.808594 26.8125 78.75 24.757812 80.964844 C 22.71875 83.144531 21.476562 84.839844 21.03125 86.042969 C 20.636719 86.871094 20.472656 87.414062 20.539062 87.675781 C 20.546875 87.878906 20.90625 88.230469 21.613281 88.722656 C 21.507812 89.5625 21.585938 90.242188 21.851562 90.765625 C 22.089844 91.191406 22.53125 91.671875 23.175781 92.207031 C 22.777344 93.1875 22.753906 93.984375 23.101562 94.601562 C 23.253906 94.949219 23.515625 95.375 23.894531 95.875 L 26.976562 99.472656 C 27.335938 99.90625 27.605469 100.308594 27.789062 100.671875 C 27.972656 101.039062 28.128906 101.472656 28.257812 101.976562 C 28.851562 104.761719 29.203125 106.230469 29.304688 106.390625 C 29.621094 107.28125 29.957031 107.878906 30.3125 108.183594 C 30.457031 108.351562 30.78125 108.617188 31.285156 108.988281 L 36.992188 98.386719 C 38.496094 97.117188 39.457031 96.015625 39.867188 95.085938 C 40.285156 93.9375 40.054688 92.523438 39.175781 90.835938 C 39.808594 89.910156 40.160156 89.195312 40.226562 88.695312 C 40.339844 88.203125 40.257812 87.425781 39.980469 86.371094 " fill-opacity="1" fill-rule="nonzero"/><path fill="#eec2ac" d="M 70.578125 81.980469 L 70.480469 82.054688 C 70.046875 82.316406 69.667969 82.816406 69.335938 83.554688 L 67.941406 87.351562 L 66.359375 90.6875 C 66.078125 91.425781 65.929688 91.960938 65.914062 92.296875 C 65.644531 94.25 66.4375 97.042969 68.285156 100.679688 L 66.800781 108.359375 L 80.75 108.152344 C 79.921875 103.648438 79.511719 100.121094 79.519531 97.570312 C 79.539062 96.449219 79.640625 95.414062 79.824219 94.460938 C 79.914062 93.980469 80.015625 93.519531 80.128906 93.070312 C 80.90625 90.261719 81.296875 88.765625 81.300781 88.578125 C 81.46875 87.730469 81.585938 86.867188 81.652344 85.992188 C 81.796875 84.214844 81.804688 81.554688 81.671875 78 C 81.871094 77.199219 81.960938 76.582031 81.945312 76.152344 C 81.925781 75.597656 81.824219 75.082031 81.636719 74.609375 C 81.484375 74.183594 81.214844 73.828125 80.828125 73.535156 C 80.574219 73.324219 80.019531 73.09375 79.171875 72.839844 C 77.195312 71.230469 75.589844 70.019531 74.355469 69.203125 C 73.148438 68.382812 71.773438 67.714844 70.234375 67.207031 C 69.542969 66.988281 68.964844 66.910156 68.492188 66.976562 C 68.175781 66.949219 66.890625 67.390625 64.644531 68.292969 C 62.789062 68.023438 61.648438 68.050781 61.230469 68.375 C 60.464844 69.125 60.796875 69.992188 62.21875 70.972656 C 61.179688 71.027344 60.648438 71.191406 60.625 71.46875 C 60.59375 71.691406 60.605469 71.84375 60.660156 71.925781 C 60.761719 72.183594 60.949219 72.472656 61.21875 72.792969 C 62.4375 74.367188 64.273438 75.046875 66.730469 74.824219 C 64.710938 75.972656 63.761719 76.464844 63.886719 76.296875 C 63.828125 76.382812 62.957031 76.265625 61.265625 75.949219 C 60.945312 75.929688 60.726562 75.960938 60.601562 76.035156 C 60.035156 76.441406 59.96875 77.082031 60.402344 77.953125 C 61.074219 78.742188 62.089844 79.214844 63.449219 79.371094 C 64.476562 79.515625 65.3125 79.25 65.957031 78.570312 C 66.726562 79.5 67.304688 80.101562 67.695312 80.367188 C 68.179688 80.75 68.988281 81.058594 70.121094 81.289062 C 70.265625 81.363281 70.453125 81.519531 70.679688 81.757812 L 70.578125 81.980469 " fill-opacity="1" fill-rule="nonzero"/><path fill="#eec2ac" d="M 23.410156 82.660156 L 23.378906 82.390625 C 23.234375 81.121094 23.03125 80.121094 22.761719 79.394531 C 22.726562 79.183594 22.210938 77.921875 21.210938 75.617188 C 21.003906 75.054688 20.894531 74.738281 20.886719 74.667969 C 20.738281 74.128906 20.753906 73.707031 20.9375 73.40625 C 21.027344 73.160156 21.492188 72.8125 22.328125 72.367188 C 23.269531 71.875 24.777344 71.183594 26.863281 70.289062 C 27.144531 69.582031 27.394531 69.09375 27.621094 68.824219 C 27.828125 68.535156 28.230469 68.1875 28.820312 67.78125 C 29.070312 66.410156 29.6875 65.292969 30.664062 64.417969 C 31.332031 63.953125 31.78125 64.339844 32.015625 65.578125 C 32.105469 66.289062 32.066406 67.144531 31.894531 68.144531 C 31.675781 69.398438 31.386719 70.40625 31.03125 71.167969 C 30.839844 71.882812 29.546875 73.355469 27.152344 75.578125 L 28.757812 78.050781 L 23.410156 82.660156 " fill-opacity="1" fill-rule="nonzero"/><path fill="#5c4e4e" d="M 23.242188 87.464844 L 23.109375 87.40625 C 24.871094 85.832031 26.628906 84.257812 27.992188 83.152344 C 29.003906 82.332031 29.792969 81.773438 30.496094 81.273438 C 30.742188 81.101562 30.976562 80.933594 31.203125 80.769531 C 31.277344 80.714844 31.347656 80.664062 31.417969 80.609375 C 31.492188 80.558594 31.558594 80.507812 31.632812 80.457031 C 32.355469 79.929688 33.074219 79.449219 33.886719 79.449219 C 33.886719 79.449219 33.894531 79.449219 33.894531 79.449219 C 34.867188 79.453125 35.957031 80.132812 36.546875 80.976562 C 36.875 81.453125 37.046875 81.976562 37.222656 82.503906 C 37.359375 82.921875 37.496094 83.339844 37.710938 83.746094 C 38.203125 84.675781 39.101562 85.554688 40.015625 86.449219 C 40.046875 86.480469 40.046875 86.527344 40.015625 86.558594 C 39.988281 86.589844 39.9375 86.589844 39.90625 86.5625 C 39 85.671875 38.078125 84.773438 37.574219 83.820312 C 37.351562 83.398438 37.207031 82.96875 37.070312 82.554688 C 36.898438 82.023438 36.730469 81.519531 36.417969 81.066406 C 35.851562 80.253906 34.800781 79.609375 33.894531 79.605469 C 33.890625 79.605469 33.890625 79.605469 33.886719 79.605469 C 33.132812 79.605469 32.453125 80.050781 31.722656 80.582031 C 31.652344 80.632812 31.585938 80.683594 31.511719 80.738281 C 31.441406 80.789062 31.371094 80.839844 31.296875 80.894531 C 31.066406 81.0625 30.832031 81.230469 30.589844 81.402344 C 29.886719 81.898438 29.097656 82.457031 28.089844 83.277344 C 26.734375 84.378906 24.976562 85.949219 23.214844 87.523438 C 23.191406 87.542969 23.160156 87.550781 23.132812 87.539062 C 23.101562 87.523438 23.085938 87.496094 23.085938 87.464844 C 23.085938 87.421875 23.121094 87.386719 23.164062 87.386719 C 23.207031 87.386719 23.242188 87.421875 23.242188 87.464844 Z M 23.242188 87.464844 " fill-opacity="1" fill-rule="nonzero"/><path fill="#5c4e4e" d="M 23.347656 91.816406 L 23.222656 91.757812 C 23.707031 91.378906 24.203125 90.992188 24.945312 90.753906 C 25.347656 90.621094 25.828125 90.535156 26.351562 90.441406 C 26.785156 90.363281 27.253906 90.277344 27.75 90.15625 C 28.84375 89.886719 30.066406 89.441406 31.253906 88.773438 C 31.566406 88.597656 31.878906 88.402344 32.1875 88.214844 C 32.480469 88.027344 32.777344 87.847656 33.0625 87.683594 C 33.601562 87.382812 34.125 87.144531 34.613281 87.09375 C 34.675781 87.089844 34.738281 87.085938 34.800781 87.085938 C 35.742188 87.085938 36.535156 87.792969 37.421875 88.695312 C 38.367188 89.660156 39.464844 90.894531 39.886719 92.167969 C 40.308594 93.441406 40.050781 94.738281 39.695312 95.535156 C 39.394531 96.199219 39.027344 96.515625 38.644531 96.84375 C 38.566406 96.914062 38.488281 96.980469 38.40625 97.050781 C 38.269531 97.179688 38.125 97.320312 37.976562 97.464844 C 37.816406 97.625 37.644531 97.792969 37.460938 97.960938 C 37.257812 98.144531 37.035156 98.328125 36.792969 98.5 C 36.214844 98.902344 35.492188 99.246094 34.933594 99.246094 C 34.84375 99.246094 34.753906 99.238281 34.671875 99.214844 C 34.058594 99.066406 33.828125 98.363281 34.046875 97.453125 C 34.273438 96.539062 34.960938 95.367188 35.636719 94.210938 C 35.660156 94.171875 35.707031 94.160156 35.746094 94.183594 C 35.78125 94.203125 35.792969 94.25 35.773438 94.289062 C 35.089844 95.453125 34.417969 96.605469 34.203125 97.492188 C 33.984375 98.382812 34.234375 98.949219 34.710938 99.0625 C 34.777344 99.082031 34.851562 99.089844 34.933594 99.089844 C 35.441406 99.089844 36.132812 98.769531 36.699219 98.371094 C 36.9375 98.203125 37.152344 98.027344 37.351562 97.84375 C 37.535156 97.679688 37.703125 97.515625 37.867188 97.355469 C 38.015625 97.207031 38.160156 97.066406 38.300781 96.9375 C 38.382812 96.863281 38.464844 96.792969 38.542969 96.726562 C 38.917969 96.402344 39.265625 96.101562 39.550781 95.46875 C 39.894531 94.699219 40.144531 93.445312 39.734375 92.214844 C 39.328125 90.984375 38.257812 89.769531 37.308594 88.804688 C 36.414062 87.890625 35.664062 87.242188 34.800781 87.242188 C 34.742188 87.242188 34.6875 87.246094 34.628906 87.25 C 34.171875 87.296875 33.675781 87.519531 33.140625 87.820312 C 32.855469 87.980469 32.566406 88.160156 32.269531 88.347656 C 31.960938 88.535156 31.648438 88.730469 31.332031 88.910156 C 30.132812 89.585938 28.894531 90.039062 27.785156 90.308594 C 27.285156 90.429688 26.8125 90.515625 26.378906 90.59375 C 25.851562 90.691406 25.386719 90.777344 24.992188 90.902344 C 24.28125 91.132812 23.804688 91.5 23.320312 91.878906 C 23.296875 91.898438 23.261719 91.902344 23.234375 91.886719 C 23.207031 91.875 23.191406 91.847656 23.191406 91.816406 C 23.191406 91.773438 23.226562 91.738281 23.269531 91.738281 C 23.3125 91.738281 23.347656 91.773438 23.347656 91.816406 Z M 23.347656 91.816406 " fill-opacity="1" fill-rule="nonzero"/><path fill="#5c4e4e" d="M 40.015625 86.394531 L 40.015625 86.398438 C 40.238281 87.121094 40.472656 87.867188 40.324219 88.589844 C 40.179688 89.3125 39.660156 90.007812 39.152344 90.683594 C 39.128906 90.71875 39.078125 90.726562 39.042969 90.699219 C 39.007812 90.671875 39 90.625 39.027344 90.589844 C 39.539062 89.90625 40.035156 89.242188 40.171875 88.558594 C 40.308594 87.882812 40.09375 87.175781 39.867188 86.445312 L 39.863281 86.441406 C 39.851562 86.398438 39.875 86.355469 39.917969 86.34375 C 39.957031 86.328125 40.003906 86.351562 40.015625 86.394531 Z M 40.015625 86.394531 " fill-opacity="1" fill-rule="nonzero"/><path fill="#5c4e4e" d="M 23.460938 82.675781 L 23.324219 82.621094 C 24.925781 80.894531 26.527344 79.164062 27.785156 77.820312 C 29.039062 76.480469 29.949219 75.523438 30.859375 74.566406 C 30.890625 74.535156 30.941406 74.535156 30.972656 74.5625 C 31.003906 74.59375 31.003906 74.644531 30.972656 74.675781 C 30.066406 75.628906 29.152344 76.585938 27.898438 77.929688 C 26.644531 79.273438 25.042969 81 23.441406 82.730469 C 23.417969 82.753906 23.386719 82.761719 23.355469 82.75 C 23.324219 82.738281 23.304688 82.707031 23.304688 82.675781 C 23.304688 82.632812 23.339844 82.597656 23.382812 82.597656 C 23.425781 82.597656 23.460938 82.632812 23.460938 82.675781 Z M 23.460938 82.675781 " fill-opacity="1" fill-rule="nonzero"/><path fill="#5c4e4e" d="M 62.445312 71.015625 L 62.378906 70.9375 C 62.789062 71.003906 63.207031 71.074219 63.617188 71.140625 C 64.03125 71.210938 64.429688 71.277344 64.839844 71.347656 L 64.800781 71.351562 C 65.421875 71.101562 66.050781 70.851562 66.703125 70.652344 C 67.355469 70.457031 68.027344 70.316406 68.660156 70.234375 C 68.90625 70.203125 69.148438 70.183594 69.386719 70.183594 C 69.761719 70.183594 70.128906 70.234375 70.496094 70.390625 C 70.859375 70.542969 71.21875 70.792969 71.621094 71.070312 C 71.882812 71.25 72.160156 71.445312 72.472656 71.636719 C 73.082031 72.007812 73.820312 72.378906 74.757812 72.847656 C 75.066406 73 75.398438 73.167969 75.753906 73.347656 C 77.179688 74.070312 79 75.027344 80.023438 75.746094 C 81.050781 76.464844 81.285156 76.945312 81.402344 77.335938 C 81.515625 77.71875 81.515625 78.003906 81.519531 78.28125 C 81.519531 78.324219 81.484375 78.359375 81.441406 78.359375 C 81.398438 78.359375 81.363281 78.324219 81.363281 78.28125 C 81.359375 78.007812 81.359375 77.742188 81.25 77.382812 C 81.144531 77.03125 80.9375 76.578125 79.933594 75.875 C 78.921875 75.164062 77.109375 74.210938 75.679688 73.488281 C 75.328125 73.308594 74.996094 73.140625 74.6875 72.988281 C 73.75 72.519531 73.003906 72.148438 72.390625 71.769531 C 72.074219 71.578125 71.792969 71.378906 71.53125 71.199219 C 71.125 70.917969 70.777344 70.679688 70.433594 70.535156 C 70.089844 70.390625 69.746094 70.339844 69.386719 70.339844 C 69.15625 70.339844 68.921875 70.359375 68.679688 70.390625 C 68.054688 70.46875 67.390625 70.609375 66.75 70.804688 C 66.105469 70.996094 65.484375 71.246094 64.859375 71.496094 C 64.84375 71.503906 64.828125 71.503906 64.816406 71.503906 C 64.40625 71.433594 64.003906 71.367188 63.589844 71.296875 C 63.183594 71.230469 62.765625 71.160156 62.351562 71.09375 C 62.316406 71.085938 62.289062 71.054688 62.289062 71.015625 C 62.289062 70.972656 62.324219 70.9375 62.367188 70.9375 C 62.410156 70.9375 62.445312 70.972656 62.445312 71.015625 Z M 62.445312 71.015625 " fill-opacity="1" fill-rule="nonzero"/><path fill="#5c4e4e" d="M 66.792969 74.816406 L 66.675781 74.746094 C 67.085938 74.507812 67.519531 74.25 68.015625 74.25 C 68.039062 74.25 68.066406 74.25 68.09375 74.253906 C 68.617188 74.28125 69.195312 74.605469 69.96875 75.203125 C 70.746094 75.804688 71.734375 76.691406 72.722656 77.574219 L 72.707031 77.5625 C 73.605469 78.035156 74.503906 78.503906 75.257812 78.847656 C 75.332031 78.878906 75.402344 78.910156 75.46875 78.941406 C 75.535156 78.972656 75.601562 79.003906 75.667969 79.03125 C 76.238281 79.292969 76.71875 79.550781 77.011719 80.132812 C 77.214844 80.546875 77.324219 81.117188 77.4375 81.738281 C 77.519531 82.175781 77.609375 82.640625 77.738281 83.101562 C 78.050781 84.21875 78.613281 85.324219 79.179688 86.433594 C 79.199219 86.472656 79.183594 86.519531 79.144531 86.539062 C 79.105469 86.558594 79.058594 86.542969 79.039062 86.503906 C 78.472656 85.398438 77.902344 84.277344 77.585938 83.144531 C 77.453125 82.675781 77.367188 82.203125 77.285156 81.765625 C 77.167969 81.140625 77.0625 80.589844 76.871094 80.203125 C 76.605469 79.671875 76.167969 79.433594 75.601562 79.175781 C 75.539062 79.144531 75.472656 79.113281 75.40625 79.085938 C 75.335938 79.054688 75.265625 79.023438 75.195312 78.992188 C 74.433594 78.644531 73.53125 78.171875 72.632812 77.703125 C 72.625 77.699219 72.621094 77.695312 72.617188 77.691406 C 71.628906 76.804688 70.644531 75.921875 69.871094 75.328125 C 69.097656 74.730469 68.554688 74.4375 68.085938 74.410156 C 68.0625 74.410156 68.039062 74.40625 68.015625 74.40625 C 67.570312 74.40625 67.175781 74.636719 66.753906 74.882812 C 66.730469 74.898438 66.699219 74.898438 66.675781 74.882812 C 66.652344 74.871094 66.636719 74.84375 66.636719 74.816406 C 66.636719 74.773438 66.671875 74.738281 66.714844 74.738281 C 66.757812 74.738281 66.792969 74.773438 66.792969 74.816406 Z M 66.792969 74.816406 " fill-opacity="1" fill-rule="nonzero"/><path fill="#5c4e4e" d="M 64.867188 68.335938 L 64.753906 68.265625 C 66 67.6875 67.257812 67.105469 68.332031 66.90625 C 68.601562 66.855469 68.863281 66.832031 69.117188 66.832031 C 69.882812 66.832031 70.609375 67.058594 71.519531 67.519531 C 72.730469 68.136719 74.273438 69.179688 75.605469 70.105469 C 76.941406 71.035156 78.066406 71.847656 79.191406 72.660156 L 79.195312 72.660156 C 79.230469 72.683594 79.238281 72.734375 79.210938 72.769531 C 79.1875 72.804688 79.136719 72.8125 79.101562 72.785156 C 77.972656 71.972656 76.847656 71.164062 75.515625 70.234375 C 74.183594 69.308594 72.648438 68.269531 71.445312 67.660156 C 70.550781 67.203125 69.847656 66.988281 69.117188 66.988281 C 68.871094 66.988281 68.621094 67.011719 68.359375 67.0625 C 67.3125 67.253906 66.074219 67.828125 64.820312 68.410156 C 64.796875 68.421875 64.769531 68.417969 64.746094 68.402344 C 64.722656 68.390625 64.710938 68.363281 64.710938 68.335938 C 64.710938 68.292969 64.746094 68.257812 64.789062 68.257812 C 64.832031 68.257812 64.867188 68.292969 64.867188 68.335938 Z M 64.867188 68.335938 " fill-opacity="1" fill-rule="nonzero"/><g clip-path="url(#7efff5f540)"><path fill="#e8e8e8" d="M 112.585938 125.492188 L 88.042969 100.925781 L 116.769531 72.171875 L 141.308594 96.738281 L 112.585938 125.492188 " fill-opacity="1" fill-rule="nonzero"/></g><g clip-path="url(#a0c79df15b)"><path stroke-linecap="round" transform="matrix(0.0262938, 0, 0, -0.0263215, 52.474407, 158.107522)" fill="none" stroke-linejoin="round" d="M 2286.149642 1239.114362 L 1352.736389 2172.435686 L 2445.259238 3264.847559 L 3378.523929 2331.526235 Z M 2286.149642 1239.114362 " stroke="#000000" stroke-width="30" stroke-opacity="1" stroke-miterlimit="10"/></g><path fill="#476d39" d="M 120.140625 113.589844 C 118.390625 115.335938 117.078125 113.816406 115.332031 112.070312 L 101.453125 98.171875 C 99.707031 96.425781 98.1875 95.113281 99.933594 93.363281 L 114.902344 78.378906 C 116.648438 76.632812 118.300781 77.8125 120.046875 79.5625 L 133.925781 93.453125 C 135.671875 95.203125 136.851562 96.855469 135.105469 98.605469 L 120.140625 113.589844 " fill-opacity="1" fill-rule="nonzero"/><path fill="#476d39" d="M 112.496094 121.394531 C 112.394531 121.496094 112.222656 121.496094 112.125 121.394531 L 92.136719 101.386719 C 92.035156 101.285156 92.035156 101.117188 92.136719 101.015625 C 92.238281 100.914062 92.402344 100.914062 92.507812 101.015625 L 112.496094 121.023438 C 112.597656 121.125 112.597656 121.292969 112.496094 121.394531 " fill-opacity="1" fill-rule="nonzero"/><g clip-path="url(#b6eca5f029)"><path fill="#e8e8e8" d="M 110.148438 132.121094 L 75.441406 132.121094 L 75.441406 91.457031 L 110.148438 91.457031 L 110.148438 132.121094 " fill-opacity="1" fill-rule="nonzero"/><path stroke-linecap="round" transform="matrix(0.0262938, 0, 0, -0.0263215, 52.474407, 158.107522)" fill="none" stroke-linejoin="round" d="M 2193.447132 987.122056 L 873.476298 987.122056 L 873.476298 2532.021879 L 2193.447132 2532.021879 Z M 2193.447132 987.122056 " stroke="#000000" stroke-width="30" stroke-opacity="1" stroke-miterlimit="10"/></g><path fill="#476d39" d="M 107.082031 118.359375 C 107.082031 120.832031 105.082031 120.6875 102.609375 120.6875 L 82.980469 120.6875 C 80.511719 120.6875 78.507812 120.832031 78.507812 118.359375 L 78.507812 97.171875 C 78.507812 94.699219 80.511719 94.363281 82.980469 94.363281 L 102.609375 94.363281 C 105.082031 94.363281 107.082031 94.699219 107.082031 97.171875 L 107.082031 118.359375 " fill-opacity="1" fill-rule="nonzero"/><path fill="#476d39" d="M 107.191406 129.289062 C 107.191406 129.433594 107.074219 129.554688 106.929688 129.554688 L 78.664062 129.554688 C 78.515625 129.554688 78.398438 129.433594 78.398438 129.289062 C 78.398438 129.144531 78.515625 129.027344 78.664062 129.027344 L 106.929688 129.027344 C 107.074219 129.027344 107.191406 129.144531 107.191406 129.289062 " fill-opacity="1" fill-rule="nonzero"/><path fill="#231f1f" d="M 91.617188 88.667969 C 91.558594 84.109375 86.621094 83.667969 86.621094 83.667969 C 86.621094 83.667969 91.734375 83.84375 91.617188 78.664062 C 91.703125 83.816406 96.609375 83.667969 96.609375 83.667969 C 96.609375 83.667969 91.617188 84.109375 91.617188 88.667969 " fill-opacity="1" fill-rule="nonzero"/><path fill="#231f1f" d="M 95.789062 90.371094 C 95.757812 87.867188 93.046875 87.625 93.046875 87.625 C 93.046875 87.625 95.855469 87.722656 95.789062 84.875 C 95.839844 87.707031 98.535156 87.625 98.535156 87.625 C 98.535156 87.625 95.789062 87.867188 95.789062 90.371094 " fill-opacity="1" fill-rule="nonzero"/><path fill="#231f1f" d="M 95.710938 83.007812 C 95.691406 81.59375 94.15625 81.457031 94.15625 81.457031 C 94.15625 81.457031 95.746094 81.511719 95.710938 79.902344 C 95.734375 81.5 97.261719 81.457031 97.261719 81.457031 C 97.261719 81.457031 95.710938 81.59375 95.710938 83.007812 " fill-opacity="1" fill-rule="nonzero"/></svg>