<svg xmlns="http://www.w3.org/2000/svg" xmlns:xlink="http://www.w3.org/1999/xlink" width="200" zoomAndPan="magnify" viewBox="0 0 150 149.999998" height="200" preserveAspectRatio="xMidYMid meet" version="1.0"><defs><clipPath id="9b0ec6110b"><path d="M 18.074219 65 L 132 65 L 132 149.46875 L 18.074219 149.46875 Z M 18.074219 65 " clip-rule="nonzero"/></clipPath><clipPath id="9a5b7726df"><path d="M 18.074219 1 L 132.074219 1 L 132.074219 149.46875 L 18.074219 149.46875 Z M 18.074219 1 " clip-rule="nonzero"/></clipPath></defs><path fill="#e56e6e" d="M 70.441406 9.886719 C 70.441406 9.886719 75.585938 1.445312 85.894531 1.222656 C 96.203125 0.996094 102.914062 11.371094 103.046875 16.933594 C 103.183594 22.492188 102.386719 23.621094 100.972656 29.015625 C 100.972656 29.015625 99.601562 32.632812 104.585938 38.261719 C 104.585938 38.261719 110.539062 44.019531 111.847656 46.84375 C 113.160156 49.667969 113.578125 51.527344 111.542969 55.519531 C 111.542969 55.519531 107.621094 60.992188 107.082031 62.785156 C 106.542969 64.582031 106.429688 66.507812 106.429688 66.507812 L 101.246094 68.484375 C 101.246094 68.484375 100.617188 65.410156 104.582031 60.949219 C 108.550781 56.484375 106.898438 52.03125 106.898438 52.03125 C 106.898438 52.03125 105.347656 47.554688 102.710938 45.09375 C 102.710938 45.09375 105.042969 50.710938 102.117188 56.074219 C 102.117188 56.074219 98.535156 61.121094 97.789062 62.359375 C 97.042969 63.597656 95.996094 66.46875 99.210938 68.664062 L 99.851562 69 L 96.847656 70.023438 C 96.847656 70.023438 94.320312 67.144531 94.125 61.851562 L 95.179688 53.023438 C 95.179688 53.023438 95.578125 48.304688 94.164062 46.476562 C 92.75 44.648438 92.75 44.648438 92.75 44.648438 C 92.75 44.648438 91.394531 56.191406 90.957031 59.105469 C 90.519531 62.023438 89.851562 67.191406 90.988281 70.253906 C 92.125 73.320312 93.65625 76.519531 97.953125 77.085938 L 79.8125 100.570312 C 79.8125 100.570312 70.292969 74.453125 70.441406 74.429688 C 70.589844 74.40625 53.78125 62.664062 53.78125 62.664062 C 53.78125 62.664062 55.441406 71.15625 55.855469 74.664062 C 56.265625 78.171875 55.855469 82.71875 54.808594 84.757812 C 53.761719 86.792969 52.6875 88.609375 51.265625 86.800781 L 52.925781 84.65625 C 52.925781 84.65625 50.855469 86.726562 48.660156 85.761719 C 48.660156 85.761719 51.199219 84.976562 51.578125 82.363281 C 51.957031 79.75 52.113281 75.851562 51.660156 73.699219 C 51.660156 73.699219 51.136719 76.691406 48.328125 77.269531 C 48.328125 77.269531 50.769531 75.3125 49.949219 70.613281 C 49.949219 70.613281 49.375 64.65625 48.089844 61.261719 C 46.808594 57.863281 46.066406 58.011719 46.066406 58.011719 L 41.503906 31.484375 C 41.503906 31.484375 39.25 27.429688 41.890625 22.5625 C 44.535156 17.695312 45.648438 15.953125 51.511719 12.609375 C 57.378906 9.269531 66.285156 9.386719 70.441406 9.886719 Z M 70.441406 9.886719 " fill-opacity="1" fill-rule="nonzero"/><g clip-path="url(#9b0ec6110b)"><path fill="#3691a4" d="M 131.859375 130.652344 C 131.859375 130.910156 131.859375 131.167969 131.839844 131.425781 L 131.839844 131.480469 C 131.582031 138.914062 128.996094 147.296875 128.289062 149.460938 L 62.613281 149.460938 C 62.011719 148.277344 60.445312 145.117188 58.082031 139.964844 C 55.015625 133.246094 53.121094 122.683594 53.121094 122.683594 C 53.121094 122.683594 53.121094 122.703125 52.945312 122.769531 C 52.566406 122.976562 51.34375 123.492188 47.449219 124.917969 C 41.882812 126.925781 33.578125 127.835938 28.648438 127.835938 C 23.738281 127.820312 22.273438 125.347656 22.273438 125.347656 C 19.617188 121.722656 19.03125 116.707031 18.738281 112.019531 C 18.445312 107.3125 22.132812 96.972656 22.132812 96.972656 C 22.132812 96.972656 28.0625 82.496094 28.390625 81.621094 C 28.804688 79.953125 30.148438 74.472656 30.148438 74.472656 L 40.246094 71.691406 L 46.742188 75.96875 L 45.070312 83.078125 C 44.898438 87.320312 43.074219 98.089844 43.074219 98.089844 C 43.074219 98.089844 54.394531 80.777344 59.546875 78.511719 C 63.578125 76.742188 66.976562 77.378906 68.59375 77.875 C 68.613281 77.875 68.613281 77.875 68.628906 77.875 C 69.25 78.082031 69.59375 78.253906 69.59375 78.253906 L 71.265625 80.503906 L 69.058594 79.421875 C 68.679688 83.578125 71.371094 93.296875 72.160156 95.101562 C 72.9375 96.886719 76.175781 103.019531 76.175781 103.019531 L 76.503906 102.8125 C 86.136719 92.199219 93.339844 77.085938 93.339844 77.085938 C 94.082031 77.273438 94.71875 77.394531 95.273438 77.445312 C 97.441406 77.667969 98.253906 77.015625 98.253906 77.015625 C 97.117188 77.121094 96.167969 76.808594 95.445312 76.398438 C 94.308594 75.78125 93.6875 74.921875 93.6875 74.921875 C 93.632812 72.707031 94.21875 71.570312 94.789062 70.988281 C 95.273438 70.472656 95.753906 70.386719 95.753906 70.386719 L 95.753906 70.402344 C 95.890625 70.402344 96.703125 70.179688 101.234375 68.359375 C 107.230469 65.9375 113.382812 63.652344 116.796875 67.226562 C 120.207031 70.78125 121.277344 72.996094 123.914062 78.046875 C 126.222656 82.460938 127.980469 90.859375 128.394531 92.886719 C 128.445312 93.179688 128.480469 93.332031 128.480469 93.332031 L 129.859375 107.671875 L 131.773438 129.589844 Z M 131.859375 130.652344 " fill-opacity="1" fill-rule="nonzero"/></g><path fill="#f4d7c3" d="M 49.007812 31.085938 C 49.242188 31.960938 48.714844 33.6875 48.714844 33.6875 C 48.714844 33.6875 47.226562 36.308594 45.878906 37.164062 L 44.128906 46.910156 L 45.835938 54.492188 L 47.464844 59.277344 C 47.464844 59.277344 48.15625 63.332031 45.132812 65.679688 L 45.078125 70.863281 C 45.078125 70.863281 39.453125 67.589844 33.113281 70.125 C 33.113281 70.125 35.527344 61.914062 35.765625 54.28125 C 35.765625 54.28125 35.675781 48.550781 35.511719 47.027344 C 35.347656 45.5 35.550781 45.105469 35.550781 45.105469 C 35.550781 45.105469 34.609375 43.355469 35.765625 41.210938 C 36.921875 39.066406 39.644531 33.84375 39.644531 33.84375 L 41.15625 30.78125 L 41.566406 31.644531 C 41.566406 31.644531 42.941406 29.105469 44.445312 28.105469 C 44.445312 28.105469 43.851562 32.167969 44.242188 34.511719 L 47.851562 31.011719 C 47.851562 31.011719 48.769531 30.210938 49.007812 31.085938 Z M 93.460938 77.085938 C 93.460938 77.085938 93.460938 77.085938 93.445312 77.101562 C 93.324219 77.359375 92.222656 79.386719 91.238281 81.550781 C 90.207031 83.851562 84.378906 92.644531 84.378906 92.644531 C 84.019531 93.265625 83.328125 94.226562 82.503906 95.308594 C 82.449219 95.375 82.414062 95.429688 82.363281 95.480469 C 80.3125 98.175781 77.503906 101.59375 76.609375 102.675781 C 76.589844 102.726562 76.539062 102.761719 76.503906 102.8125 L 76.488281 102.832031 C 76.367188 102.949219 76.316406 103.019531 76.316406 103.019531 L 76.28125 102.949219 L 75.402344 101.542969 C 75.382812 101.523438 75.382812 101.492188 75.367188 101.472656 L 73.472656 98.382812 C 73.472656 98.382812 73.074219 97.367188 72.558594 95.960938 C 72.542969 95.910156 72.507812 95.859375 72.488281 95.804688 C 72.128906 94.878906 71.730469 93.8125 71.371094 92.75 C 71.371094 92.730469 71.371094 92.730469 71.351562 92.714844 C 70.816406 91.203125 70.335938 89.761719 70.144531 88.902344 C 69.972656 88.144531 69.800781 86.925781 69.644531 85.605469 C 69.644531 85.585938 69.644531 85.570312 69.644531 85.570312 C 69.371094 83.199219 69.144531 80.519531 69.058594 79.625 L 69.058594 79.609375 C 69.042969 79.59375 69.042969 79.574219 69.058594 79.558594 C 69.042969 79.539062 69.058594 79.523438 69.058594 79.507812 C 69.042969 79.386719 69.042969 79.316406 69.042969 79.316406 L 71.023438 80.382812 L 69.765625 78.511719 C 69.714844 78.441406 69.664062 78.355469 69.59375 78.253906 C 69.59375 78.253906 69.578125 78.253906 69.558594 78.234375 C 68.214844 76.347656 63.492188 70.9375 63.492188 70.9375 L 62.941406 70.628906 C 57.410156 67.777344 53.792969 62.65625 53.792969 62.65625 L 52.273438 55.101562 L 51.363281 50.378906 L 51.363281 39.402344 C 51.363281 39.402344 51.671875 34.285156 54.929688 29.9375 C 58.203125 25.609375 62.183594 24.890625 62.183594 24.890625 L 62.289062 24.71875 C 68.265625 23.980469 76.160156 18.859375 76.160156 18.859375 C 76.832031 21.609375 80.3125 26.863281 80.3125 26.863281 C 80.3125 26.863281 82.691406 29.734375 84.621094 33.03125 C 86.550781 36.328125 87.484375 41.257812 87.484375 41.257812 C 88.480469 45.085938 88.945312 55.238281 88.945312 55.238281 C 88.945312 55.238281 88.894531 56.441406 87.949219 58.929688 C 87.015625 61.421875 86.878906 65.234375 86.878906 65.234375 C 86.878906 65.234375 86.3125 69.289062 88.292969 72.757812 C 90.292969 76.210938 93.460938 77.085938 93.460938 77.085938 Z M 61.976562 52.320312 C 61.960938 52.234375 61.941406 52.128906 61.925781 52.042969 C 61.925781 52.027344 61.910156 51.992188 61.910156 51.976562 C 61.910156 51.957031 61.910156 51.957031 61.890625 51.941406 C 61.820312 51.632812 61.648438 51.339844 61.390625 51.152344 C 61.234375 51.046875 61.046875 50.996094 60.855469 50.925781 C 60.238281 50.773438 59.617188 50.601562 58.980469 50.582031 C 58.410156 50.566406 57.496094 50.6875 57.117188 51.183594 C 56.722656 51.683594 56.773438 52.832031 57.03125 53.367188 C 57.152344 53.625 57.339844 53.828125 57.515625 54.035156 C 57.773438 54.34375 58.03125 54.636719 58.289062 54.945312 C 58.445312 55.101562 58.582031 55.273438 58.773438 55.375 C 58.789062 55.394531 58.824219 55.410156 58.859375 55.410156 C 58.859375 55.410156 58.859375 55.425781 58.875 55.425781 C 59.324219 55.617188 59.875 55.425781 60.339844 55.238281 C 60.738281 55.101562 61.132812 54.929688 61.410156 54.636719 C 61.425781 54.621094 61.441406 54.601562 61.441406 54.585938 C 61.476562 54.515625 61.527344 54.449219 61.582031 54.363281 C 61.648438 54.207031 61.734375 54.035156 61.820312 53.847656 C 61.820312 53.8125 61.839844 53.796875 61.839844 53.761719 C 61.960938 53.296875 62.027344 52.800781 61.976562 52.320312 Z M 81.640625 44.828125 C 81.605469 44.777344 81.589844 44.742188 81.554688 44.691406 C 81.484375 44.605469 81.417969 44.519531 81.332031 44.453125 C 80.796875 43.972656 79.589844 43.9375 78.953125 44.125 C 78.175781 44.367188 77.453125 45.085938 77.140625 45.808594 C 76.761719 46.652344 76.867188 47.75 77.503906 48.417969 C 77.675781 48.609375 77.882812 48.761719 78.125 48.832031 C 78.296875 48.882812 78.488281 48.882812 78.675781 48.902344 C 78.882812 48.917969 79.089844 48.917969 79.28125 48.902344 C 79.46875 48.902344 79.640625 48.882812 79.832031 48.847656 C 80.675781 48.675781 81.433594 48.078125 81.777344 47.304688 C 82.140625 46.511719 82.070312 45.570312 81.640625 44.828125 Z M 91.609375 71.507812 C 91.542969 72.773438 93.65625 75.03125 93.65625 75.03125 L 93.988281 72.378906 C 93.535156 72.394531 91.609375 71.507812 91.609375 71.507812 Z M 91.609375 71.507812 " fill-opacity="1" fill-rule="nonzero"/><path fill="#f9f8f4" d="M 81.554688 47.972656 C 82.742188 46.769531 81.640625 44.675781 81.640625 44.675781 L 81.554688 44.691406 C 81.484375 44.605469 81.417969 44.519531 81.332031 44.453125 C 80.796875 43.972656 79.589844 43.9375 78.953125 44.125 C 78.175781 44.367188 77.453125 45.085938 77.140625 45.808594 C 76.761719 46.652344 76.867188 47.75 77.503906 48.417969 C 77.675781 48.609375 77.882812 48.761719 78.125 48.832031 C 78.296875 48.882812 78.488281 48.882812 78.675781 48.902344 C 78.882812 48.917969 79.089844 48.917969 79.28125 48.902344 C 79.574219 49.003906 79.8125 49.019531 79.8125 49.019531 L 76.644531 50.171875 C 73.039062 50.667969 73.402344 46.890625 73.402344 46.890625 C 73.402344 46.890625 74.609375 45.535156 77.933594 44.175781 C 81.261719 42.820312 84.464844 43.867188 84.464844 43.867188 L 83.207031 47.648438 L 81.777344 48.160156 Z M 57.601562 50.6875 C 54.515625 51.355469 52.429688 54.277344 52.429688 54.277344 L 55.324219 56.648438 L 56.929688 56.234375 L 58.789062 55.976562 L 59.03125 55.582031 C 59.03125 55.582031 59.03125 55.582031 58.875 55.425781 C 58.859375 55.425781 58.859375 55.410156 58.859375 55.410156 C 58.824219 55.410156 58.789062 55.394531 58.773438 55.375 C 58.582031 55.273438 58.445312 55.101562 58.289062 54.945312 C 58.03125 54.636719 57.773438 54.34375 57.515625 54.035156 C 57.339844 53.828125 57.152344 53.625 57.03125 53.367188 C 56.773438 52.832031 56.722656 51.683594 57.117188 51.183594 C 57.496094 50.6875 58.410156 50.566406 58.980469 50.582031 C 59.617188 50.601562 60.238281 50.773438 60.855469 50.925781 C 61.046875 50.996094 61.234375 51.046875 61.390625 51.152344 C 61.648438 51.339844 61.820312 51.632812 61.890625 51.941406 C 61.910156 51.957031 61.910156 51.957031 61.910156 51.976562 C 61.910156 51.992188 61.925781 52.027344 61.925781 52.042969 C 61.941406 52.078125 61.941406 52.128906 61.960938 52.164062 C 61.976562 52.214844 61.976562 52.265625 61.976562 52.320312 C 62.082031 52.851562 61.996094 53.347656 61.839844 53.761719 C 61.839844 53.796875 61.820312 53.8125 61.820312 53.847656 C 61.734375 54.035156 61.648438 54.207031 61.582031 54.363281 C 61.527344 54.449219 61.476562 54.515625 61.441406 54.585938 C 61.441406 54.601562 61.425781 54.621094 61.410156 54.636719 C 61.234375 54.878906 61.117188 55.015625 61.117188 55.015625 L 62.183594 54.84375 C 65.148438 53.332031 62.992188 50.324219 62.992188 50.324219 C 62.992188 50.324219 60.683594 50 57.601562 50.6875 Z M 81.851562 14.566406 C 83.308594 16.414062 86.210938 20.179688 86.210938 20.179688 C 86.210938 20.179688 87.082031 17.941406 84.578125 13.300781 C 82.074219 8.660156 78.164062 8.246094 75.230469 8.28125 C 72.292969 8.316406 71.230469 10.121094 71.230469 10.121094 L 78.199219 11.59375 C 78.199219 11.59375 80.398438 12.714844 81.851562 14.566406 Z M 76.503906 102.8125 L 76.175781 103.019531 C 76.175781 103.019531 72.9375 96.886719 72.160156 95.101562 C 71.371094 93.296875 68.679688 83.578125 69.058594 79.421875 L 71.265625 80.503906 L 69.59375 78.253906 C 69.59375 78.253906 69.25 78.082031 68.628906 77.875 C 68.613281 77.875 68.613281 77.875 68.59375 77.875 C 68.558594 77.890625 68.542969 77.890625 68.542969 77.890625 C 68.542969 77.890625 68.128906 77.429688 67.578125 80.675781 C 67.042969 83.902344 67.90625 89.039062 68.441406 91.734375 C 68.972656 94.433594 71.023438 99.257812 72.765625 102.316406 C 74.507812 105.355469 76.367188 107.039062 76.367188 107.039062 C 77.195312 106.816406 79.019531 104.960938 81.125 102.882812 C 83.226562 100.820312 87.621094 95.085938 88.964844 93.039062 C 90.292969 91.015625 92.980469 85.140625 92.980469 85.140625 C 93.652344 83.921875 94.738281 80.605469 95.273438 77.445312 C 94.71875 77.394531 94.082031 77.273438 93.339844 77.085938 C 93.339844 77.085938 86.136719 92.199219 76.503906 102.8125 Z M 41.75 69.558594 C 38.988281 68.773438 32.878906 69.65625 31.773438 70.613281 C 30.667969 71.570312 30.050781 74.582031 30.050781 74.582031 L 35.765625 73.308594 C 42.433594 72.40625 46.601562 76.003906 46.601562 76.003906 C 47.683594 73.667969 47.183594 72.265625 47.183594 72.265625 C 47.183594 72.265625 44.511719 70.34375 41.75 69.558594 Z M 61.839844 52.496094 L 61.820312 52.410156 C 61.824219 52.5 61.839844 52.566406 61.835938 52.636719 C 61.84375 52.582031 61.835938 52.546875 61.839844 52.496094 Z M 94.789062 70.988281 C 94.21875 71.570312 93.632812 72.707031 93.6875 74.921875 C 93.6875 74.921875 94.308594 75.78125 95.445312 76.398438 C 95.546875 75.574219 95.597656 74.785156 95.597656 74.0625 C 95.582031 71.023438 95.945312 70.488281 96.046875 70.421875 C 95.875 70.488281 95.425781 70.695312 94.789062 70.988281 Z M 94.789062 70.988281 " fill-opacity="1" fill-rule="nonzero"/><path fill="#e56e6e" d="M 61.441406 54.585938 C 61.476562 54.515625 61.527344 54.449219 61.582031 54.363281 C 61.582031 54.429688 61.527344 54.484375 61.496094 54.535156 C 61.476562 54.550781 61.460938 54.566406 61.441406 54.585938 Z M 61.441406 54.585938 " fill-opacity="1" fill-rule="nonzero"/><g clip-path="url(#9a5b7726df)"><path fill="#3f3229" d="M 69.824219 61.78125 C 69.828125 61.734375 69.832031 61.683594 69.851562 61.636719 C 69.867188 61.589844 69.890625 61.542969 69.910156 61.496094 C 69.945312 61.429688 69.976562 61.359375 70.011719 61.289062 C 70.042969 61.222656 70.082031 61.15625 70.117188 61.089844 C 70.160156 61.015625 70.210938 60.953125 70.246094 60.890625 C 70.285156 60.832031 70.355469 60.808594 70.421875 60.832031 C 70.484375 60.859375 70.523438 60.929688 70.5 60.996094 C 70.480469 61.070312 70.464844 61.148438 70.4375 61.222656 C 70.414062 61.292969 70.386719 61.367188 70.359375 61.4375 C 70.328125 61.507812 70.300781 61.578125 70.269531 61.648438 C 70.25 61.695312 70.230469 61.742188 70.207031 61.785156 C 70.183594 61.828125 70.152344 61.867188 70.117188 61.902344 C 70.070312 61.953125 69.992188 61.964844 69.929688 61.9375 C 69.871094 61.914062 69.816406 61.847656 69.824219 61.78125 Z M 74.460938 59.59375 C 74.425781 59.753906 74.378906 59.910156 74.3125 60.058594 C 74.242188 60.210938 74.15625 60.351562 74.066406 60.492188 C 74.019531 60.566406 73.96875 60.636719 73.921875 60.710938 C 73.898438 60.746094 73.875 60.777344 73.851562 60.8125 C 73.828125 60.851562 73.816406 60.890625 73.800781 60.933594 C 73.769531 61.007812 73.859375 61.082031 73.925781 61.0625 C 73.972656 61.046875 74.015625 61.042969 74.054688 61.015625 C 74.097656 60.988281 74.136719 60.957031 74.175781 60.925781 C 74.25 60.863281 74.3125 60.804688 74.371094 60.730469 C 74.492188 60.578125 74.589844 60.410156 74.667969 60.234375 C 74.746094 60.0625 74.804688 59.886719 74.839844 59.699219 C 74.863281 59.59375 74.890625 59.4375 74.875 59.308594 C 74.882812 59.296875 74.894531 59.292969 74.898438 59.28125 C 74.96875 59.082031 74.71875 58.851562 74.605469 58.714844 C 74.460938 58.542969 74.3125 58.375 74.167969 58.203125 C 73.875 57.863281 73.578125 57.527344 73.242188 57.226562 C 73.144531 57.140625 72.976562 57.253906 73.050781 57.375 C 73.296875 57.761719 73.582031 58.117188 73.878906 58.464844 C 74.019531 58.636719 74.164062 58.8125 74.308594 58.984375 C 74.371094 59.058594 74.449219 59.160156 74.535156 59.238281 C 74.523438 59.269531 74.515625 59.304688 74.507812 59.335938 C 74.496094 59.421875 74.480469 59.511719 74.460938 59.59375 Z M 83.796875 43.34375 C 84.375 43.292969 84.941406 43.199219 85.484375 42.964844 C 85.632812 42.902344 85.746094 43.085938 85.613281 43.183594 C 85.335938 43.382812 85.023438 43.5 84.703125 43.585938 C 84.796875 43.625 84.890625 43.660156 84.984375 43.695312 C 85.253906 43.785156 85.519531 43.871094 85.789062 43.957031 C 85.855469 43.953125 85.921875 43.953125 85.988281 43.949219 C 86.125 43.941406 86.140625 44.140625 86.019531 44.179688 C 85.835938 44.238281 85.667969 44.308594 85.476562 44.335938 C 85.3125 44.363281 85.140625 44.371094 84.972656 44.378906 C 84.902344 44.558594 84.8125 44.734375 84.742188 44.886719 C 84.585938 45.214844 84.421875 45.535156 84.257812 45.859375 C 84.085938 46.191406 83.914062 46.523438 83.753906 46.859375 C 83.675781 47.019531 83.605469 47.179688 83.527344 47.335938 C 83.464844 47.457031 83.410156 47.585938 83.316406 47.6875 C 83.414062 47.703125 83.511719 47.734375 83.609375 47.769531 C 83.703125 47.804688 83.796875 47.847656 83.882812 47.902344 C 83.925781 47.925781 83.964844 47.953125 84.003906 47.980469 C 84.054688 48.019531 84.082031 48.066406 84.101562 48.128906 C 84.117188 48.183594 84.082031 48.253906 84.023438 48.265625 C 83.96875 48.277344 83.921875 48.28125 83.867188 48.261719 C 83.835938 48.25 83.808594 48.238281 83.78125 48.226562 C 83.777344 48.222656 83.714844 48.199219 83.746094 48.210938 C 83.695312 48.191406 83.644531 48.167969 83.59375 48.148438 C 83.574219 48.136719 83.554688 48.128906 83.535156 48.121094 C 83.550781 48.128906 83.550781 48.128906 83.53125 48.121094 C 83.511719 48.109375 83.492188 48.101562 83.472656 48.09375 C 83.460938 48.089844 83.453125 48.085938 83.441406 48.082031 C 83.457031 48.089844 83.457031 48.089844 83.4375 48.082031 C 83.417969 48.070312 83.394531 48.0625 83.375 48.054688 C 83.332031 48.039062 83.289062 48.027344 83.25 48.007812 C 83.160156 47.976562 83.074219 47.9375 82.988281 47.890625 C 82.941406 47.867188 82.917969 47.804688 82.933594 47.757812 C 82.949219 47.703125 82.996094 47.671875 83.050781 47.667969 C 83.0625 47.667969 83.078125 47.671875 83.089844 47.671875 C 83.046875 47.367188 83.246094 47.007812 83.371094 46.742188 C 83.378906 46.730469 83.382812 46.71875 83.390625 46.703125 C 83.457031 46.421875 83.527344 46.136719 83.585938 45.851562 C 83.582031 45.832031 83.570312 45.808594 83.582031 45.785156 C 83.597656 45.746094 83.605469 45.703125 83.621094 45.664062 C 83.699219 45.214844 83.753906 44.761719 83.796875 44.304688 C 83.613281 44.28125 83.433594 44.230469 83.253906 44.191406 C 82.792969 44.144531 82.335938 44.09375 81.878906 44.078125 C 81.71875 44.070312 81.558594 44.082031 81.398438 44.078125 C 81.910156 44.582031 82.226562 45.253906 82.292969 45.992188 C 82.347656 46.632812 82.175781 47.464844 81.757812 48.046875 C 81.796875 48.03125 81.839844 48.007812 81.878906 47.996094 C 81.894531 47.992188 81.898438 47.96875 81.910156 47.972656 C 81.917969 47.972656 81.921875 47.972656 81.929688 47.976562 C 81.933594 47.972656 81.9375 47.96875 81.941406 47.96875 C 81.957031 47.964844 81.960938 47.980469 81.976562 47.984375 C 82.035156 47.992188 82.097656 47.996094 82.160156 48.011719 C 82.242188 48.035156 82.316406 48.0625 82.394531 48.097656 C 82.464844 48.128906 82.535156 48.160156 82.601562 48.195312 C 82.691406 48.246094 82.769531 48.304688 82.804688 48.40625 C 82.835938 48.5 82.753906 48.578125 82.664062 48.585938 C 82.570312 48.597656 82.488281 48.542969 82.410156 48.5 C 82.347656 48.464844 82.285156 48.433594 82.222656 48.402344 C 82.101562 48.347656 81.980469 48.285156 81.859375 48.230469 C 81.539062 48.484375 81.152344 48.695312 80.796875 48.871094 C 80.386719 49.078125 79.960938 49.265625 79.53125 49.433594 C 78.605469 49.804688 77.652344 50.09375 76.675781 50.289062 C 76.515625 50.324219 76.449219 50.089844 76.605469 50.050781 C 77.484375 49.820312 78.351562 49.539062 79.195312 49.207031 C 79.085938 49.210938 78.972656 49.210938 78.863281 49.203125 C 77.800781 49.105469 76.832031 48.488281 76.402344 47.5 C 76.195312 47.015625 76.109375 46.476562 76.167969 45.953125 C 76.195312 45.71875 76.246094 45.460938 76.335938 45.21875 C 75.910156 45.410156 75.496094 45.613281 75.09375 45.847656 C 74.476562 46.203125 73.949219 46.679688 73.351562 47.050781 C 73.269531 47.101562 73.207031 46.996094 73.257812 46.933594 C 73.277344 46.910156 73.300781 46.890625 73.320312 46.867188 C 73.320312 46.859375 73.308594 46.855469 73.3125 46.84375 C 73.796875 45.726562 74.714844 44.957031 75.777344 44.414062 C 76.898438 43.738281 78.183594 43.4375 79.511719 43.347656 C 80.488281 43.195312 81.476562 43.089844 82.460938 43.152344 C 82.875 43.179688 83.339844 43.238281 83.796875 43.34375 Z M 81.894531 46.066406 C 81.867188 45.675781 81.738281 45.289062 81.554688 44.929688 C 81.535156 44.945312 81.519531 44.964844 81.496094 44.972656 C 80.984375 45.09375 80.5 45.285156 80.035156 45.511719 C 80.136719 45.652344 80.21875 45.808594 80.277344 45.964844 C 80.359375 46.175781 80.414062 46.394531 80.449219 46.613281 C 80.484375 46.832031 80.519531 47.070312 80.480469 47.292969 C 80.445312 47.507812 80.277344 47.710938 80.042969 47.703125 C 79.835938 47.699219 79.695312 47.535156 79.582031 47.378906 C 79.449219 47.195312 79.34375 47 79.257812 46.789062 C 79.175781 46.589844 79.109375 46.378906 79.082031 46.164062 C 79.078125 46.136719 79.078125 46.105469 79.074219 46.074219 C 78.761719 46.304688 78.480469 46.578125 78.355469 46.941406 C 78.1875 47.441406 78.347656 48.039062 78.757812 48.378906 C 79.03125 48.605469 79.363281 48.679688 79.699219 48.664062 C 80.035156 48.574219 80.359375 48.457031 80.660156 48.285156 C 80.835938 48.183594 81.003906 48.066406 81.15625 47.933594 C 81.289062 47.816406 81.414062 47.695312 81.542969 47.582031 C 81.585938 47.503906 81.640625 47.429688 81.675781 47.34375 C 81.84375 46.941406 81.921875 46.503906 81.894531 46.066406 Z M 70.371094 42.125 C 70.417969 42.117188 70.457031 42.078125 70.496094 42.042969 C 70.949219 41.574219 71.351562 41.046875 71.851562 40.628906 C 72.183594 40.351562 72.554688 40.128906 72.921875 39.902344 C 74.515625 38.9375 76.109375 37.972656 77.761719 37.109375 C 78.574219 36.683594 79.296875 36.335938 80.207031 36.1875 C 81.101562 36.042969 82.011719 35.984375 82.921875 35.957031 C 83.089844 35.953125 83.273438 35.945312 83.410156 35.84375 C 83.535156 35.75 82.863281 35.5 82.808594 35.492188 C 82.445312 35.429688 82.058594 35.433594 81.6875 35.421875 C 80.921875 35.398438 80.152344 35.417969 79.382812 35.433594 C 79.03125 35.441406 78.679688 35.449219 78.34375 35.542969 C 78.070312 35.617188 77.816406 35.75 77.566406 35.878906 C 76.511719 36.425781 75.457031 36.972656 74.398438 37.515625 C 73.484375 37.992188 72.5625 38.28125 71.757812 38.933594 C 71.664062 38.953125 71.570312 38.992188 71.492188 39.023438 C 71.320312 39.09375 71.15625 39.191406 71.011719 39.308594 C 70.71875 39.550781 70.484375 39.855469 70.296875 40.183594 C 70.089844 40.550781 70.011719 40.917969 70.042969 41.300781 C 70.054688 41.503906 70.101562 41.710938 70.167969 41.921875 C 70.199219 42.023438 70.265625 42.136719 70.371094 42.125 Z M 61.238281 48.214844 C 61.015625 48.125 60.734375 47.988281 60.480469 47.976562 C 60.464844 47.964844 60.460938 47.929688 60.429688 47.933594 C 59.402344 48.046875 58.378906 48.378906 57.414062 48.746094 C 56.941406 48.925781 56.476562 49.125 56.023438 49.34375 C 55.59375 49.554688 55.019531 49.773438 54.695312 50.132812 C 54.628906 50.210938 54.695312 50.324219 54.792969 50.300781 C 55.03125 50.25 55.25 50.109375 55.46875 50 C 55.679688 49.894531 55.890625 49.785156 56.105469 49.683594 C 56.578125 49.457031 57.0625 49.25 57.554688 49.0625 C 58.503906 48.699219 59.476562 48.464844 60.449219 48.175781 C 60.625 48.316406 60.871094 48.410156 61.066406 48.488281 C 61.351562 48.605469 61.636719 48.71875 61.917969 48.832031 C 62.476562 49.058594 63.035156 49.28125 63.605469 49.480469 C 63.734375 49.523438 63.824219 49.3125 63.699219 49.253906 C 63.160156 49.003906 62.613281 48.777344 62.0625 48.550781 C 61.789062 48.441406 61.515625 48.328125 61.238281 48.214844 Z M 73.496094 44.394531 C 73.511719 44.398438 73.523438 44.417969 73.546875 44.40625 C 74.011719 44.183594 74.441406 43.882812 74.898438 43.640625 C 75.34375 43.402344 75.804688 43.195312 76.277344 43.019531 C 76.730469 42.847656 77.199219 42.707031 77.671875 42.59375 C 78.167969 42.472656 78.710938 42.433594 79.1875 42.25 C 79.261719 42.222656 79.285156 42.09375 79.1875 42.078125 C 78.710938 42 78.183594 42.113281 77.71875 42.210938 C 77.179688 42.328125 76.648438 42.488281 76.132812 42.683594 C 75.648438 42.867188 75.175781 43.082031 74.71875 43.332031 C 74.261719 43.578125 73.800781 43.847656 73.4375 44.222656 C 73.410156 44.210938 73.378906 44.210938 73.359375 44.238281 C 73.191406 44.4375 73.128906 44.726562 73.050781 44.96875 C 72.964844 45.234375 72.882812 45.5 72.796875 45.765625 C 72.710938 46.03125 72.628906 46.296875 72.542969 46.5625 C 72.460938 46.835938 72.355469 47.113281 72.300781 47.394531 C 72.273438 47.523438 72.46875 47.628906 72.53125 47.492188 C 72.757812 46.984375 72.894531 46.429688 73.0625 45.902344 C 73.148438 45.636719 73.234375 45.371094 73.320312 45.105469 C 73.390625 44.886719 73.484375 44.636719 73.496094 44.394531 Z M 71.460938 65.535156 C 72.207031 65.382812 72.988281 65.273438 73.691406 64.980469 C 73.777344 64.941406 73.777344 64.800781 73.667969 64.800781 C 72.921875 64.816406 72.179688 65.023438 71.453125 65.183594 C 70.714844 65.34375 69.929688 65.457031 69.222656 65.722656 C 69.117188 65.761719 69.121094 65.9375 69.25 65.929688 C 69.988281 65.886719 70.738281 65.679688 71.460938 65.535156 Z M 77.988281 63.105469 C 77.554688 63.277344 77.121094 63.449219 76.691406 63.621094 C 75.84375 63.957031 74.996094 64.285156 74.167969 64.664062 C 74.0625 64.714844 74.136719 64.894531 74.25 64.855469 C 75.136719 64.570312 75.996094 64.222656 76.867188 63.886719 C 77.300781 63.71875 77.734375 63.546875 78.167969 63.378906 C 78.546875 63.230469 78.988281 63.109375 79.308594 62.855469 C 79.375 62.804688 79.320312 62.683594 79.242188 62.6875 C 78.808594 62.722656 78.386719 62.949219 77.988281 63.105469 Z M 75.660156 66.898438 C 75.441406 66.949219 75.226562 67.007812 75.007812 67.066406 C 74.582031 67.179688 74.15625 67.300781 73.734375 67.425781 C 73.582031 67.46875 73.644531 67.691406 73.796875 67.660156 C 74.230469 67.5625 74.660156 67.464844 75.089844 67.359375 C 75.300781 67.308594 75.511719 67.257812 75.71875 67.199219 C 75.921875 67.140625 76.160156 67.101562 76.332031 66.980469 C 76.417969 66.921875 76.382812 66.808594 76.285156 66.796875 C 76.078125 66.773438 75.859375 66.851562 75.660156 66.898438 Z M 110.625 130.566406 C 110.660156 130.378906 110.695312 130.207031 110.714844 130.019531 C 110.730469 129.917969 110.617188 129.871094 110.53125 129.898438 C 109.628906 124.109375 108.503906 118.335938 107.519531 112.570312 C 106.207031 104.859375 105.03125 97.105469 103.496094 89.433594 C 103.464844 89.273438 103.234375 89.34375 103.253906 89.5 C 104.339844 97.183594 105.785156 104.820312 107.085938 112.46875 C 108.144531 118.667969 109.054688 124.921875 110.234375 131.105469 C 110.234375 131.117188 110.230469 131.125 110.230469 131.136719 C 110.230469 131.152344 110.230469 131.152344 110.230469 131.152344 C 109.679688 134.125 109.246094 137.128906 108.78125 140.117188 C 108.523438 141.800781 108.25 143.5 107.988281 145.183594 C 107.75 146.59375 107.4375 148.035156 107.351562 149.460938 L 107.679688 149.460938 C 108.058594 147.984375 108.214844 146.402344 108.4375 144.910156 C 108.695312 143.210938 108.972656 141.527344 109.230469 139.824219 C 109.628906 137.265625 110.074219 134.742188 110.4375 132.183594 C 110.4375 132.183594 110.4375 132.183594 110.4375 132.164062 C 110.417969 132.164062 110.417969 132.164062 110.4375 132.148438 C 110.4375 132.140625 110.4375 132.136719 110.4375 132.128906 C 110.652344 133.21875 110.855469 134.308594 111.089844 135.390625 C 111.113281 135.507812 111.320312 135.484375 111.304688 135.363281 C 111.105469 133.765625 110.871094 132.175781 110.625 130.582031 C 110.625 130.578125 110.625 130.574219 110.625 130.566406 Z M 132.03125 131.550781 C 132.03125 131.554688 132.03125 131.558594 132.03125 131.5625 C 131.894531 134.484375 131.394531 137.472656 130.859375 140.324219 C 130.289062 143.347656 129.617188 146.523438 128.53125 149.460938 L 128.050781 149.460938 C 128.875 146.457031 129.839844 143.484375 130.425781 140.410156 C 131.082031 137.050781 131.339844 133.691406 131.683594 130.316406 C 131.3125 127.460938 131.152344 124.5625 130.898438 121.699219 C 130.601562 118.382812 130.304688 115.066406 130.011719 111.75 C 129.503906 106.078125 128.871094 100.386719 128.511719 94.695312 C 128.4375 94.714844 128.351562 94.695312 128.335938 94.605469 C 127.722656 90.90625 127.078125 87.265625 125.902344 83.691406 C 124.820312 80.402344 123.421875 77.214844 121.722656 74.191406 C 120.144531 71.382812 118.347656 68.3125 115.550781 66.554688 C 112.339844 64.539062 109.007812 65.824219 105.773438 67.023438 C 102.597656 68.199219 99.425781 69.40625 96.234375 70.550781 C 96.234375 70.5625 96.246094 70.574219 96.238281 70.585938 C 96.125 70.769531 95.96875 70.890625 95.894531 71.105469 C 95.828125 71.292969 95.808594 71.496094 95.796875 71.695312 C 95.777344 72.210938 95.808594 72.734375 95.800781 73.253906 C 95.789062 73.828125 95.765625 74.402344 95.71875 74.976562 C 95.695312 75.246094 95.671875 75.511719 95.636719 75.78125 C 95.617188 75.90625 95.605469 76.035156 95.574219 76.160156 C 95.5625 76.207031 95.546875 76.226562 95.535156 76.253906 C 96.472656 76.730469 97.542969 76.945312 98.753906 76.753906 C 98.984375 76.714844 99.085938 77.066406 98.851562 77.109375 C 98.777344 77.121094 98.707031 77.121094 98.632812 77.128906 C 97.648438 77.59375 96.589844 77.78125 95.527344 77.730469 C 94.148438 83.632812 91.734375 89.246094 88.390625 94.308594 C 86.734375 96.8125 84.867188 99.179688 82.832031 101.386719 C 81.820312 102.488281 80.746094 103.53125 79.679688 104.582031 C 78.707031 105.539062 77.738281 106.644531 76.457031 107.195312 C 76.4375 107.203125 76.417969 107.195312 76.398438 107.195312 C 76.355469 107.253906 76.28125 107.277344 76.214844 107.210938 C 72.585938 103.347656 70.066406 98.332031 68.625 93.265625 C 67.90625 90.730469 67.457031 88.113281 67.328125 85.476562 C 67.214844 83.222656 67.042969 80.257812 68.105469 78.144531 C 65.777344 77.539062 63.484375 77.363281 61.0625 78.136719 C 59.007812 78.789062 57.324219 80.042969 55.851562 81.535156 C 55.839844 81.605469 55.835938 81.675781 55.820312 81.746094 C 55.515625 83.429688 55.027344 86.007812 53.617188 87.179688 C 52.929688 87.75 51.800781 87.769531 51.300781 87.058594 C 48.558594 90.632812 45.921875 94.28125 43.253906 97.910156 C 43.050781 99.128906 42.851562 100.347656 42.632812 101.558594 C 41.976562 105.15625 41.351562 108.792969 40.367188 112.316406 C 40.324219 112.46875 40.109375 112.402344 40.136719 112.253906 C 40.71875 108.777344 41.523438 105.335938 42.160156 101.867188 C 42.769531 98.539062 43.320312 95.199219 43.808594 91.847656 C 44.277344 88.609375 44.390625 85.269531 45.054688 82.066406 C 45.386719 80.449219 45.824219 78.847656 46.21875 77.246094 C 46.296875 76.925781 46.378906 76.601562 46.457031 76.277344 C 44.332031 74.484375 41.6875 73.582031 38.925781 73.421875 C 35.902344 73.246094 33.136719 74.058594 30.210938 74.621094 C 30.058594 75.316406 29.929688 76.019531 29.792969 76.699219 C 29.378906 78.742188 28.984375 80.78125 28.1875 82.714844 C 25.332031 89.621094 22.242188 96.527344 20.3125 103.765625 C 19.328125 107.453125 18.683594 111.324219 19.042969 115.148438 C 19.363281 118.609375 20.554688 121.878906 22.195312 124.925781 C 22.753906 125.691406 23.476562 126.351562 24.296875 126.824219 C 25.566406 127.550781 27.09375 127.625 28.523438 127.628906 C 31.152344 127.636719 33.789062 127.5 36.398438 127.210938 C 39.511719 126.871094 42.511719 126.21875 45.460938 125.367188 L 53.722656 113.441406 C 54.207031 112.011719 54.773438 110.621094 55.324219 109.320312 C 57.179688 104.941406 59.269531 100.492188 59.140625 95.628906 C 59.136719 95.457031 59.394531 95.460938 59.40625 95.628906 C 59.6875 100.078125 57.964844 104.203125 56.242188 108.214844 C 55.242188 110.535156 54.25 112.867188 53.613281 115.316406 C 53.078125 117.394531 52.957031 119.40625 53.089844 121.496094 C 53.707031 126.003906 54.890625 130.464844 56.34375 134.742188 C 57.273438 137.457031 58.339844 140.152344 59.511719 142.78125 C 60.53125 145.046875 61.789062 147.210938 62.855469 149.460938 L 62.460938 149.460938 C 61.0625 147.347656 60.03125 144.960938 59.011719 142.660156 C 57.875 140.101562 56.859375 137.488281 55.945312 134.84375 C 54.648438 131.003906 53.558594 127.066406 52.996094 123.058594 C 47.484375 125.695312 41.410156 127.164062 35.339844 127.726562 C 32.453125 127.996094 29.328125 128.316406 26.445312 127.917969 C 24.492188 127.644531 22.179688 126.339844 21.515625 124.339844 C 19.78125 121.316406 18.78125 117.886719 18.574219 114.40625 C 18.105469 106.519531 21.292969 98.722656 24.121094 91.523438 C 24.855469 89.660156 25.605469 87.804688 26.363281 85.953125 C 27.121094 84.09375 28.050781 82.285156 28.574219 80.339844 C 29.078125 78.472656 29.402344 76.5625 29.839844 74.679688 C 30.164062 73.292969 30.589844 71.964844 31.457031 70.839844 C 31.414062 70.773438 31.414062 70.6875 31.503906 70.632812 C 31.554688 70.605469 31.609375 70.589844 31.660156 70.5625 C 31.667969 70.550781 31.675781 70.535156 31.6875 70.523438 C 31.722656 70.484375 31.761719 70.484375 31.800781 70.496094 C 32.1875 70.289062 32.589844 70.105469 33 69.9375 C 33.921875 65.808594 34.914062 61.75 35.300781 57.515625 C 35.488281 55.445312 35.578125 53.367188 35.570312 51.292969 C 35.566406 49.304688 35.308594 47.269531 35.445312 45.28125 C 34.375 42.980469 35.910156 40.589844 36.964844 38.5625 C 38.300781 36.003906 39.535156 33.347656 41.078125 30.902344 C 41.078125 30.898438 41.082031 30.902344 41.082031 30.902344 C 40.527344 29.457031 40.269531 28.050781 40.550781 26.464844 C 40.894531 24.53125 41.515625 22.652344 42.449219 20.917969 C 45.28125 15.636719 50.644531 12.097656 56.339844 10.503906 C 60.894531 9.230469 65.652344 9.167969 70.324219 9.800781 C 74.203125 4.421875 80.816406 0.296875 87.625 1.167969 C 93.734375 1.945312 99.246094 5.878906 101.765625 11.507812 C 103.015625 14.308594 103.5625 17.417969 103.308594 20.476562 C 103.171875 22.097656 102.785156 23.652344 102.265625 25.191406 C 101.660156 26.996094 100.960938 28.839844 101.105469 30.78125 C 101.660156 38.109375 110.007812 41.429688 112.535156 47.871094 C 115.390625 55.140625 106.640625 59.410156 106.609375 66.28125 C 107.078125 66.117188 107.546875 65.933594 108.015625 65.777344 C 111.085938 64.75 113.96875 64.75 116.613281 66.804688 C 119.1875 68.808594 120.917969 71.835938 122.445312 74.648438 C 125.289062 79.886719 127.527344 85.855469 128.339844 91.847656 C 128.339844 91.78125 128.332031 91.710938 128.328125 91.644531 C 128.324219 91.542969 128.5 91.515625 128.511719 91.621094 C 129.398438 98.148438 129.800781 104.765625 130.382812 111.328125 C 130.679688 114.644531 130.976562 117.960938 131.269531 121.273438 C 131.503906 123.875 131.824219 126.492188 132 129.109375 C 132.003906 129.109375 132.007812 129.105469 132.011719 129.109375 C 132.046875 129.144531 132.066406 129.175781 132.066406 129.230469 C 132.066406 129.519531 132.082031 129.8125 132.066406 130.105469 L 132.066406 130.15625 C 132.066406 130.214844 132.0625 130.277344 132.058594 130.339844 C 132.078125 130.703125 132.105469 131.070312 132.113281 131.433594 C 132.117188 131.492188 132.078125 131.527344 132.03125 131.550781 Z M 33.433594 69.742188 C 37.082031 68.414062 41.410156 68.71875 44.871094 70.515625 C 44.875 70.261719 44.894531 70.007812 44.898438 69.765625 C 44.910156 69.328125 44.917969 68.890625 44.929688 68.449219 C 44.949219 67.621094 44.976562 66.792969 45.050781 65.96875 C 44.835938 66.085938 44.609375 66.183594 44.375 66.214844 C 44.222656 66.230469 44.207031 66.023438 44.304688 65.953125 C 44.566406 65.761719 44.867188 65.632812 45.128906 65.4375 C 45.410156 65.234375 45.664062 64.992188 45.886719 64.730469 C 46.3125 64.222656 46.628906 63.617188 46.832031 62.988281 C 47.277344 61.609375 47.183594 60.160156 47.078125 58.734375 C 45.824219 54.90625 44.496094 51.058594 44.128906 47.050781 C 44.046875 47.050781 43.96875 47.007812 43.976562 46.910156 C 44.144531 45.277344 44.539062 43.652344 44.839844 42.042969 C 44.996094 41.195312 45.152344 40.34375 45.3125 39.496094 C 45.433594 38.832031 45.515625 38.113281 45.734375 37.464844 C 45.707031 37.488281 45.683594 37.511719 45.65625 37.53125 C 45.53125 37.628906 45.355469 37.46875 45.476562 37.351562 C 46.390625 36.429688 47.402344 35.617188 48.101562 34.5 C 48.4375 33.960938 48.695312 33.371094 48.824219 32.75 C 48.890625 32.449219 48.921875 32.148438 48.917969 31.84375 C 48.914062 31.597656 48.875 31.359375 48.863281 31.121094 C 48.703125 30.945312 48.34375 30.921875 48.132812 31.027344 C 47.871094 31.160156 47.671875 31.394531 47.46875 31.597656 C 47 32.0625 46.53125 32.527344 46.0625 32.988281 C 45.578125 33.464844 45.09375 33.941406 44.609375 34.414062 C 44.496094 34.527344 44.375 34.652344 44.257812 34.773438 C 44.257812 34.777344 44.257812 34.78125 44.257812 34.78125 C 44.25 34.851562 44.191406 34.894531 44.128906 34.90625 C 43.84375 35.199219 43.546875 35.488281 43.207031 35.691406 C 43.183594 35.707031 43.160156 35.683594 43.136719 35.679688 C 42.6875 37 42.183594 38.296875 41.683594 39.597656 C 41.417969 40.289062 41.15625 40.984375 40.894531 41.679688 C 40.664062 42.296875 40.484375 43.085938 40.082031 43.617188 C 40.058594 43.648438 40.015625 43.660156 39.976562 43.65625 C 39.832031 44.039062 39.722656 44.4375 39.699219 44.835938 C 39.679688 45.132812 39.695312 45.433594 39.75 45.722656 C 39.800781 46.019531 39.929688 46.300781 39.976562 46.59375 C 39.996094 46.691406 39.875 46.789062 39.796875 46.699219 C 39.589844 46.460938 39.492188 46.085938 39.429688 45.78125 C 39.363281 45.460938 39.34375 45.132812 39.367188 44.808594 C 39.40625 44.195312 39.609375 43.648438 39.953125 43.148438 C 40.074219 42.585938 40.347656 42.003906 40.535156 41.496094 C 40.792969 40.800781 41.054688 40.109375 41.324219 39.417969 C 41.855469 38.042969 42.40625 36.6875 43.058594 35.367188 C 43.085938 35.3125 43.136719 35.320312 43.179688 35.34375 C 43.386719 35.074219 43.640625 34.832031 43.882812 34.59375 C 43.917969 34.5625 43.949219 34.527344 43.984375 34.496094 C 43.898438 33.667969 43.929688 32.808594 43.945312 31.984375 C 43.960938 31.023438 44.011719 30.066406 44.128906 29.109375 C 44.160156 28.859375 44.203125 28.609375 44.246094 28.359375 C 42.695312 30.09375 41.484375 31.875 40.71875 34.109375 C 39.917969 36.453125 39.164062 38.808594 38.34375 41.140625 C 38.398438 41.128906 38.453125 41.179688 38.441406 41.234375 C 38.367188 41.503906 38.203125 41.765625 38.089844 42.023438 C 37.964844 42.300781 37.847656 42.582031 37.753906 42.871094 C 37.574219 43.445312 37.472656 44.046875 37.414062 44.648438 C 37.398438 44.804688 37.175781 44.804688 37.167969 44.648438 C 37.121094 44 37.222656 43.363281 37.417969 42.746094 C 37.519531 42.4375 37.636719 42.132812 37.789062 41.847656 C 37.859375 41.71875 37.941406 41.582031 38.03125 41.453125 C 38.820312 38.761719 39.601562 36.039062 40.578125 33.40625 C 40.800781 32.804688 41.074219 32.214844 41.375 31.640625 C 41.300781 31.464844 41.238281 31.296875 41.171875 31.125 C 40.210938 33.363281 39 35.507812 37.871094 37.667969 C 37.261719 38.835938 36.605469 39.996094 36.054688 41.195312 C 35.550781 42.289062 35.214844 43.515625 35.480469 44.691406 C 35.484375 44.652344 35.480469 44.613281 35.488281 44.574219 C 35.5 44.457031 35.679688 44.449219 35.675781 44.574219 C 35.675781 44.832031 35.6875 45.085938 35.691406 45.34375 C 35.695312 45.355469 35.699219 45.367188 35.703125 45.378906 C 35.710938 45.394531 35.691406 45.402344 35.691406 45.417969 C 35.726562 47.445312 35.941406 49.46875 35.960938 51.5 C 35.980469 53.714844 35.871094 55.933594 35.648438 58.136719 C 35.429688 60.289062 35.101562 62.433594 34.664062 64.554688 C 34.320312 66.226562 34.125 68.148438 33.433594 69.742188 Z M 46.5625 75.863281 C 46.664062 75.445312 46.769531 75.03125 46.871094 74.617188 C 47.066406 73.835938 47.324219 73.003906 46.847656 72.277344 C 44.71875 70.804688 42.480469 69.71875 39.867188 69.414062 C 37.042969 69.089844 34.308594 69.703125 31.746094 70.863281 C 30.996094 71.863281 30.582031 73.046875 30.292969 74.265625 C 33.121094 73.238281 36.480469 72.773438 39.464844 73.050781 C 42.035156 73.289062 44.585938 74.171875 46.5625 75.863281 Z M 51.097656 86.628906 C 51.09375 86.617188 51.089844 86.609375 51.085938 86.59375 C 51.0625 86.496094 51.152344 86.441406 51.226562 86.460938 C 51.476562 86.136719 51.730469 85.824219 51.980469 85.5 C 50.910156 86.152344 49.636719 86.386719 48.421875 85.917969 C 47.839844 85.941406 47.261719 85.773438 46.78125 85.320312 C 46.707031 85.25 46.804688 85.128906 46.890625 85.179688 C 49.453125 86.738281 51.136719 83.75 51.523438 81.644531 C 51.941406 79.359375 51.800781 77.023438 51.570312 74.726562 C 51.5625 74.628906 51.546875 74.535156 51.539062 74.441406 C 51.414062 74.859375 51.246094 75.269531 51 75.628906 C 50.6875 76.082031 50.292969 76.46875 49.835938 76.78125 C 49.414062 77.0625 48.851562 77.367188 48.328125 77.375 C 48.292969 77.378906 48.273438 77.34375 48.257812 77.316406 C 48.230469 77.332031 48.210938 77.351562 48.183594 77.363281 C 48.050781 77.421875 47.933594 77.242188 48.066406 77.160156 C 50.28125 75.789062 49.875 71.84375 49.679688 69.628906 C 49.441406 66.894531 48.769531 64.222656 47.988281 61.601562 C 47.835938 61.101562 47.679688 60.605469 47.519531 60.105469 C 47.597656 61.214844 47.523438 62.339844 47.128906 63.375 C 46.875 64.039062 46.511719 64.667969 46.023438 65.191406 C 45.820312 65.40625 45.582031 65.625 45.320312 65.808594 C 45.320312 65.8125 45.320312 65.8125 45.320312 65.8125 C 45.371094 66.695312 45.355469 67.570312 45.335938 68.449219 C 45.328125 68.890625 45.316406 69.328125 45.308594 69.765625 C 45.300781 70.074219 45.3125 70.40625 45.285156 70.722656 C 46.003906 71.128906 46.695312 71.585938 47.316406 72.128906 C 47.417969 72.21875 47.367188 72.351562 47.273438 72.417969 C 47.65625 73.183594 47.382812 74.085938 47.183594 74.917969 C 46.769531 76.679688 46.34375 78.433594 45.917969 80.191406 C 45.09375 83.585938 44.894531 87.039062 44.410156 90.492188 C 44.097656 92.710938 43.753906 94.921875 43.390625 97.132812 C 45.0625 94.59375 46.894531 92.148438 48.742188 89.738281 C 49.527344 88.707031 50.3125 87.667969 51.097656 86.628906 Z M 55.347656 82.054688 C 54.875 82.566406 54.417969 83.101562 53.976562 83.644531 C 53.125 84.703125 52.289062 85.777344 51.460938 86.851562 C 52 87.753906 53.265625 87.160156 53.765625 86.484375 C 54.171875 85.925781 54.421875 85.261719 54.65625 84.621094 C 54.960938 83.785156 55.175781 82.921875 55.347656 82.054688 Z M 68.421875 77.761719 C 68.441406 77.765625 68.457031 77.773438 68.476562 77.78125 C 68.726562 77.875 68.972656 77.980469 69.210938 78.097656 C 68.992188 77.804688 68.773438 77.503906 68.546875 77.214844 C 66.808594 75.019531 64.859375 73.015625 63.027344 70.902344 C 61.320312 69.984375 59.691406 68.914062 58.261719 67.648438 C 58.226562 67.617188 58.214844 67.582031 58.21875 67.542969 C 57.664062 67.234375 57.164062 66.761719 56.710938 66.335938 C 56.21875 65.875 55.75 65.386719 55.304688 64.878906 C 54.917969 64.441406 54.550781 63.980469 54.21875 63.5 C 54.167969 63.425781 54.121094 63.347656 54.070312 63.273438 C 54.332031 64.539062 54.597656 65.800781 54.84375 67.066406 C 55.71875 71.59375 56.582031 76.246094 55.945312 80.855469 C 57.550781 79.328125 59.40625 78.113281 61.617188 77.550781 C 63.75 77.007812 66.277344 76.980469 68.421875 77.761719 Z M 70.941406 73.859375 C 69.410156 73.503906 67.902344 73.0625 66.433594 72.496094 C 65.550781 72.152344 64.679688 71.75 63.816406 71.320312 C 65.644531 73.175781 67.414062 75.101562 69.011719 77.144531 C 69.78125 78.128906 70.503906 79.148438 71.15625 80.210938 C 71.792969 81.25 72.46875 82.359375 72.808594 83.53125 C 72.847656 83.671875 72.65625 83.742188 72.585938 83.625 C 71.976562 82.679688 71.496094 81.652344 70.933594 80.675781 C 70.867188 80.632812 70.796875 80.589844 70.742188 80.554688 C 70.5625 80.441406 70.386719 80.332031 70.210938 80.21875 C 69.882812 80.011719 69.527344 79.8125 69.234375 79.554688 C 69.503906 83.683594 69.988281 87.707031 71.195312 91.695312 C 71.839844 93.816406 72.632812 95.894531 73.582031 97.898438 C 74.382812 99.601562 75.386719 101.175781 76.285156 102.816406 C 77.828125 100.808594 79.515625 98.910156 81.050781 96.894531 C 82.59375 94.859375 84.066406 92.777344 85.46875 90.644531 C 88.3125 86.324219 90.742188 81.804688 93.09375 77.207031 C 92.210938 76.875 91.375 76.410156 90.65625 75.8125 C 88.074219 73.675781 87.011719 70.757812 86.78125 67.652344 C 86.265625 70.558594 85.5625 73.433594 84.792969 76.28125 C 84.410156 77.6875 84.007812 79.089844 83.578125 80.484375 C 83.167969 81.816406 82.816406 83.242188 82.195312 84.496094 C 82.132812 84.617188 81.964844 84.523438 81.988281 84.40625 C 82.269531 82.941406 82.863281 81.5 83.300781 80.070312 C 83.707031 78.726562 84.097656 77.378906 84.46875 76.023438 C 84.566406 75.671875 84.648438 75.316406 84.738281 74.964844 C 84.957031 73.203125 85.265625 70.402344 85.148438 69.542969 C 85.015625 68.542969 81.542969 71.066406 80.035156 72.214844 C 79.488281 72.761719 78.953125 73.328125 78.363281 73.839844 C 78.355469 73.84375 78.347656 73.84375 78.335938 73.847656 C 78.027344 74.152344 77.644531 74.371094 77.238281 74.515625 C 76.835938 74.65625 76.347656 74.773438 75.921875 74.695312 C 75.917969 74.691406 75.917969 74.683594 75.914062 74.679688 C 74.25 74.625 72.558594 74.230469 70.941406 73.859375 Z M 86.769531 67.558594 L 86.765625 67.5625 C 86.765625 67.566406 86.769531 67.566406 86.769531 67.570312 C 86.769531 67.566406 86.769531 67.5625 86.769531 67.558594 Z M 95.113281 77.691406 C 94.535156 77.628906 93.960938 77.515625 93.40625 77.332031 C 91.277344 82.09375 88.597656 86.660156 85.71875 91.011719 C 84.277344 93.191406 82.761719 95.324219 81.171875 97.402344 C 79.683594 99.347656 78.171875 101.355469 76.445312 103.101562 C 76.503906 103.214844 76.570312 103.328125 76.632812 103.445312 C 76.710938 103.59375 76.5 103.777344 76.386719 103.632812 C 76.3125 103.542969 76.25 103.4375 76.175781 103.34375 C 76.066406 103.371094 75.9375 103.257812 76.015625 103.148438 C 76.023438 103.144531 76.027344 103.140625 76.03125 103.132812 C 74.871094 101.546875 73.96875 99.695312 73.148438 97.9375 C 72.246094 96.007812 71.480469 94.015625 70.855469 91.980469 C 69.574219 87.820312 68.726562 83.28125 68.898438 78.910156 C 68.90625 78.726562 69.171875 78.730469 69.183594 78.910156 C 69.191406 79.050781 69.207031 79.191406 69.214844 79.332031 C 69.242188 79.3125 69.265625 79.28125 69.304688 79.296875 C 69.691406 79.445312 70.039062 79.699219 70.390625 79.914062 C 70.4375 79.945312 70.484375 79.972656 70.53125 80.003906 C 70.222656 79.515625 69.902344 79.039062 69.566406 78.570312 C 69.195312 78.449219 68.824219 78.339844 68.453125 78.234375 C 67.601562 80.621094 67.609375 83.324219 67.757812 85.824219 C 67.910156 88.363281 68.363281 90.882812 69.070312 93.324219 C 70.527344 98.351562 73.089844 102.777344 76.296875 106.882812 C 77.609375 106.242188 78.605469 105.078125 79.632812 104.070312 C 80.707031 103.019531 81.773438 101.960938 82.785156 100.847656 C 84.78125 98.652344 86.609375 96.300781 88.226562 93.816406 C 91.445312 88.878906 93.769531 83.421875 95.113281 77.691406 Z M 97.453125 77.167969 C 95.992188 77.050781 94.726562 76.347656 93.683594 75.328125 C 93.613281 75.328125 93.542969 75.289062 93.515625 75.207031 C 93.511719 75.191406 93.515625 75.171875 93.511719 75.15625 C 92.027344 73.625 91.019531 71.464844 90.585938 69.515625 C 89.578125 64.96875 90.597656 59.945312 91.289062 55.417969 C 91.839844 51.800781 92.324219 48.207031 92.417969 44.585938 C 92.378906 44.542969 92.34375 44.503906 92.304688 44.457031 C 92.214844 44.351562 92.304688 44.207031 92.425781 44.226562 C 92.453125 42.648438 92.414062 41.066406 92.257812 39.476562 C 91.757812 34.378906 90.347656 29.390625 88.300781 24.699219 C 86.335938 20.191406 83.601562 16.40625 80.097656 12.964844 C 80.011719 12.878906 80.144531 12.746094 80.234375 12.832031 C 82.605469 14.992188 84.550781 17.390625 86.199219 20.015625 C 85.960938 16.574219 84.929688 12.660156 81.933594 10.558594 C 78.917969 8.441406 74.496094 7.484375 71.460938 9.984375 C 73.804688 10.355469 76.125 10.878906 78.375 11.523438 C 78.519531 11.5625 78.457031 11.78125 78.3125 11.742188 C 74.304688 10.761719 70.210938 9.980469 66.074219 9.84375 C 59.886719 9.644531 53.570312 10.996094 48.511719 14.695312 C 46.121094 16.441406 44.082031 18.667969 42.710938 21.296875 C 41.910156 22.835938 41.34375 24.488281 41.015625 26.191406 C 40.800781 27.304688 40.699219 28.25 41.019531 29.351562 C 41.203125 29.980469 41.414062 30.601562 41.617188 31.226562 C 42.316406 30.003906 43.191406 28.886719 44.296875 28.03125 C 44.539062 26.691406 44.925781 25.390625 45.5625 24.171875 C 45.617188 24.066406 45.765625 24.15625 45.71875 24.261719 C 45 25.886719 44.605469 27.636719 44.429688 29.398438 C 44.339844 30.292969 44.300781 31.191406 44.289062 32.085938 C 44.277344 32.785156 44.308594 33.503906 44.28125 34.207031 C 44.453125 34.039062 44.625 33.871094 44.796875 33.699219 C 45.410156 33.105469 46.019531 32.507812 46.632812 31.914062 C 46.9375 31.621094 47.234375 31.316406 47.550781 31.039062 C 47.773438 30.847656 48.019531 30.683594 48.316406 30.640625 C 48.570312 30.605469 48.828125 30.691406 48.992188 30.851562 C 49.023438 30.859375 49.058594 30.855469 49.074219 30.886719 C 49.367188 31.402344 49.296875 32.125 49.195312 32.683594 C 49.078125 33.316406 48.832031 33.929688 48.503906 34.484375 C 47.886719 35.535156 46.984375 36.445312 46.03125 37.222656 C 46.050781 37.242188 46.082031 37.253906 46.082031 37.285156 C 46.109375 38.042969 45.847656 38.859375 45.707031 39.601562 C 45.550781 40.421875 45.394531 41.238281 45.242188 42.054688 C 44.949219 43.601562 44.722656 45.1875 44.328125 46.714844 C 45.210938 52.558594 47.484375 57.953125 48.980469 63.636719 C 49.699219 66.371094 50.214844 69.1875 50.175781 72.023438 C 50.15625 73.605469 50.128906 75.859375 48.8125 76.96875 C 48.867188 76.949219 48.925781 76.925781 48.980469 76.902344 C 49.210938 76.796875 49.433594 76.671875 49.644531 76.527344 C 50.0625 76.246094 50.433594 75.878906 50.714844 75.460938 C 51.03125 75 51.234375 74.480469 51.34375 73.933594 C 51.382812 73.730469 51.394531 73.523438 51.40625 73.316406 C 50.957031 69.136719 50.40625 64.96875 49.828125 60.804688 C 49.808594 60.679688 50 60.621094 50.023438 60.75 C 50.519531 63.59375 50.941406 66.453125 51.320312 69.316406 C 51.6875 72.128906 52.117188 74.972656 52.1875 77.8125 C 52.242188 80.011719 52.191406 82.871094 50.742188 84.6875 C 50.316406 85.21875 49.707031 85.621094 49.0625 85.808594 C 51.558594 86.109375 53.578125 83.972656 54.199219 81.644531 C 54.859375 79.164062 54.613281 76.355469 54.378906 73.828125 C 53.867188 68.296875 52.363281 62.839844 50.011719 57.804688 C 49.957031 57.6875 50.128906 57.582031 50.1875 57.703125 C 52.996094 63.417969 54.625 69.605469 54.925781 75.964844 C 55.027344 78.089844 55.121094 80.546875 54.316406 82.605469 C 54.386719 82.523438 54.449219 82.4375 54.515625 82.355469 C 54.828125 81.996094 55.152344 81.648438 55.484375 81.3125 C 55.519531 81.113281 55.566406 80.917969 55.59375 80.714844 C 55.976562 77.867188 55.773438 74.980469 55.355469 72.148438 C 54.625 67.195312 53.515625 62.28125 52.53125 57.375 C 52.378906 56.597656 52.207031 55.820312 52.039062 55.039062 C 52.03125 55.035156 52.027344 55.03125 52.023438 55.027344 C 51.875 55.125 51.726562 55.222656 51.566406 55.300781 C 51.394531 55.382812 51.222656 55.414062 51.046875 55.480469 C 50.921875 55.527344 50.84375 55.328125 50.957031 55.265625 C 51.015625 55.234375 51.066406 55.191406 51.121094 55.152344 C 51.269531 54.949219 51.421875 54.742188 51.566406 54.535156 C 51.640625 54.4375 51.710938 54.332031 51.777344 54.226562 C 51.460938 54.34375 51.136719 54.433594 50.785156 54.433594 C 50.648438 54.433594 50.613281 54.21875 50.753906 54.1875 C 51.113281 54.105469 51.449219 53.96875 51.777344 53.8125 C 51.558594 52.773438 51.355469 51.734375 51.207031 50.6875 C 51.042969 49.519531 51.121094 48.378906 51.148438 47.210938 C 50.972656 47.300781 50.800781 47.402344 50.628906 47.519531 C 49.875 48.027344 49.171875 48.605469 48.496094 49.207031 C 48.367188 49.320312 48.230469 49.441406 48.0625 49.460938 C 47.902344 49.476562 48.222656 48.835938 48.253906 48.792969 C 48.480469 48.5 48.761719 48.234375 49.023438 47.976562 C 49.566406 47.433594 50.136719 46.917969 50.707031 46.40625 C 50.847656 46.277344 50.996094 46.148438 51.148438 46.03125 C 51.136719 45.125 51.113281 44.21875 51.121094 43.3125 C 51.144531 41.128906 51.042969 38.910156 51.5625 36.773438 C 52.042969 34.808594 52.785156 32.898438 53.859375 31.183594 C 55.765625 28.136719 58.636719 25.726562 62.148438 24.792969 C 62.277344 24.757812 62.328125 24.949219 62.203125 24.984375 C 57.167969 26.5 53.660156 30.875 52.210938 35.78125 C 51.480469 38.257812 51.519531 40.757812 51.496094 43.3125 C 51.492188 44.136719 51.511719 44.960938 51.523438 45.78125 C 51.527344 45.78125 51.53125 45.777344 51.539062 45.773438 C 51.789062 45.644531 52.0625 45.566406 52.335938 45.488281 C 53.476562 45.164062 54.621094 44.835938 55.765625 44.511719 C 56.753906 44.230469 57.625 43.8125 58.664062 43.734375 C 58.746094 43.683594 58.839844 43.648438 58.917969 43.617188 C 59.089844 43.550781 59.277344 43.511719 59.460938 43.496094 C 59.84375 43.472656 60.222656 43.53125 60.585938 43.644531 C 60.988281 43.769531 61.296875 43.984375 61.539062 44.28125 C 61.667969 44.4375 61.777344 44.617188 61.875 44.820312 C 61.921875 44.914062 61.953125 45.042969 61.867188 45.101562 C 61.828125 45.132812 61.773438 45.132812 61.722656 45.128906 C 61.066406 45.101562 60.414062 44.992188 59.757812 45.03125 C 59.328125 45.058594 58.90625 45.148438 58.484375 45.234375 C 56.660156 45.625 54.835938 46.011719 53.039062 46.515625 C 52.496094 46.667969 52.003906 46.824219 51.523438 47.035156 C 51.523438 47.175781 51.527344 47.320312 51.523438 47.464844 C 51.476562 48.824219 51.46875 50.074219 51.714844 51.425781 C 51.847656 52.160156 52.007812 52.894531 52.148438 53.628906 C 52.210938 53.59375 52.269531 53.554688 52.332031 53.519531 C 52.703125 53.089844 53.148438 52.710938 53.53125 52.410156 C 54.242188 51.851562 55.03125 51.40625 55.835938 50.992188 C 56.96875 50.289062 58.1875 49.78125 59.496094 49.675781 C 60.675781 49.492188 61.871094 49.585938 62.925781 50.210938 C 62.933594 50.214844 62.925781 50.222656 62.933594 50.230469 C 62.960938 50.234375 62.992188 50.238281 63.019531 50.242188 C 63.109375 50.265625 63.085938 50.390625 63 50.394531 C 62.949219 50.398438 62.902344 50.394531 62.851562 50.394531 C 62.851562 50.394531 62.847656 50.402344 62.84375 50.398438 C 62.84375 50.398438 62.839844 50.398438 62.835938 50.394531 C 62.242188 50.417969 61.652344 50.410156 61.058594 50.445312 C 61.769531 50.988281 62.203125 51.796875 62.242188 52.703125 C 62.277344 53.476562 61.964844 54.492188 61.308594 55.019531 C 61.589844 54.921875 61.871094 54.828125 62.144531 54.722656 C 62.277344 54.671875 62.371094 54.894531 62.242188 54.953125 C 61.351562 55.355469 60.433594 55.675781 59.484375 55.917969 C 59.019531 56.039062 58.550781 56.140625 58.078125 56.21875 C 57.78125 56.265625 57.460938 56.304688 57.140625 56.324219 C 57.113281 56.359375 57.082031 56.390625 57.058594 56.429688 C 57.011719 56.492188 56.96875 56.550781 56.929688 56.617188 C 56.859375 56.734375 56.796875 56.863281 56.71875 56.976562 C 56.691406 57.019531 56.660156 57.066406 56.605469 57.082031 C 56.546875 57.097656 56.492188 57.066406 56.46875 57.015625 C 56.433594 56.9375 56.476562 56.820312 56.511719 56.746094 C 56.582031 56.585938 56.691406 56.449219 56.8125 56.324219 C 56.75 56.324219 56.683594 56.335938 56.621094 56.328125 C 56.527344 56.3125 56.5 56.191406 56.597656 56.160156 C 57.035156 56.015625 57.535156 55.972656 57.988281 55.894531 C 58.203125 55.855469 58.414062 55.800781 58.628906 55.757812 C 57.585938 55.609375 56.679688 54.945312 56.292969 53.960938 C 56.097656 53.464844 56.050781 52.917969 56.128906 52.394531 C 56.15625 52.191406 56.214844 51.96875 56.296875 51.757812 C 56.269531 51.769531 56.242188 51.777344 56.21875 51.789062 C 55.808594 51.992188 55.417969 52.238281 55.027344 52.480469 C 54.703125 52.710938 54.378906 52.945312 54.070312 53.191406 C 53.820312 53.394531 53.578125 53.613281 53.335938 53.828125 C 53.203125 53.984375 53.074219 54.140625 52.929688 54.28125 C 53.234375 54.621094 53.542969 54.957031 53.867188 55.273438 C 53.898438 55.292969 53.925781 55.316406 53.957031 55.335938 C 53.980469 55.351562 53.984375 55.371094 53.996094 55.390625 C 54.183594 55.566406 54.375 55.734375 54.570312 55.902344 C 54.59375 55.921875 54.617188 55.945312 54.644531 55.96875 C 54.667969 55.980469 54.691406 55.992188 54.714844 56.003906 C 54.863281 56.085938 55.007812 56.171875 55.144531 56.265625 C 55.257812 56.347656 55.382812 56.429688 55.457031 56.554688 C 55.511719 56.488281 55.585938 56.410156 55.667969 56.394531 C 55.738281 56.382812 55.832031 56.429688 55.824219 56.511719 C 55.8125 56.601562 55.761719 56.683594 55.71875 56.757812 C 55.679688 56.824219 55.648438 56.894531 55.617188 56.964844 C 55.605469 56.984375 55.628906 56.933594 55.613281 56.964844 C 55.613281 56.972656 55.609375 56.980469 55.605469 56.988281 C 55.597656 57.007812 55.59375 57.023438 55.585938 57.042969 C 55.574219 57.078125 55.558594 57.117188 55.546875 57.152344 C 55.53125 57.199219 55.519531 57.242188 55.5 57.285156 C 55.496094 57.296875 55.488281 57.308594 55.484375 57.316406 C 55.492188 57.304688 55.492188 57.300781 55.488281 57.316406 C 55.476562 57.339844 55.464844 57.363281 55.453125 57.386719 C 55.429688 57.429688 55.375 57.460938 55.328125 57.460938 C 55.316406 57.460938 55.300781 57.457031 55.289062 57.453125 C 55.238281 57.445312 55.195312 57.398438 55.1875 57.351562 C 55.136719 57.160156 55.207031 56.964844 55.292969 56.792969 C 55.304688 56.773438 55.320312 56.757812 55.332031 56.738281 C 55.1875 56.714844 55.0625 56.640625 54.933594 56.574219 C 54.773438 56.492188 54.621094 56.402344 54.460938 56.320312 C 54.140625 56.144531 53.808594 55.976562 53.480469 55.808594 C 53.144531 55.636719 52.808594 55.464844 52.476562 55.285156 C 52.476562 55.28125 52.472656 55.28125 52.472656 55.28125 C 52.941406 57.652344 53.40625 60.023438 53.890625 62.390625 C 54.101562 62.71875 54.296875 63.046875 54.527344 63.363281 C 54.863281 63.824219 55.234375 64.269531 55.617188 64.695312 C 56.046875 65.175781 56.5 65.632812 56.96875 66.078125 C 57.417969 66.511719 57.933594 66.917969 58.339844 67.394531 C 58.375 67.390625 58.40625 67.390625 58.441406 67.414062 C 61.113281 69.265625 63.710938 71.035156 66.777344 72.191406 C 68.210938 72.730469 69.6875 73.152344 71.179688 73.492188 C 72.75 73.851562 74.371094 74.015625 75.929688 74.414062 C 76.128906 74.363281 76.332031 74.347656 76.53125 74.304688 C 76.726562 74.257812 76.921875 74.207031 77.113281 74.136719 C 77.496094 74 77.855469 73.808594 78.207031 73.605469 C 78.21875 73.597656 78.234375 73.601562 78.25 73.597656 C 80.03125 71.917969 81.675781 70.078125 83.144531 68.121094 C 84.578125 66.214844 85.714844 64.132812 87.078125 62.1875 C 87.308594 60.738281 87.632812 59.320312 87.984375 57.996094 C 88.210938 57.148438 88.4375 56.304688 88.65625 55.460938 C 88.660156 53.128906 88.59375 50.800781 88.375 48.472656 C 87.898438 43.417969 87.09375 37.867188 84.597656 33.359375 C 81.882812 28.464844 77.570312 24.550781 76.171875 18.996094 C 74.160156 20.476562 71.886719 21.652344 69.59375 22.621094 C 67.296875 23.59375 64.789062 24.523438 62.292969 24.816406 C 62.175781 24.832031 62.160156 24.648438 62.265625 24.613281 C 64.769531 23.867188 67.261719 23.273438 69.675781 22.238281 C 71.933594 21.269531 74.015625 20.039062 76.101562 18.757812 C 76.078125 18.65625 76.035156 18.5625 76.015625 18.457031 C 75.992188 18.34375 76.160156 18.296875 76.1875 18.410156 C 76.207031 18.496094 76.238281 18.578125 76.257812 18.660156 C 76.28125 18.648438 76.304688 18.632812 76.328125 18.617188 C 76.453125 18.542969 76.550781 18.726562 76.441406 18.808594 C 76.402344 18.835938 76.363281 18.863281 76.324219 18.890625 C 77.21875 22.167969 79.152344 25 81.148438 27.714844 C 82.746094 29.886719 84.476562 32.039062 85.589844 34.511719 C 86.605469 36.765625 87.253906 39.179688 87.753906 41.59375 C 88.578125 45.601562 89.136719 49.859375 89.023438 54.007812 C 89.65625 51.480469 90.207031 48.945312 90.441406 46.320312 C 90.777344 42.566406 90.601562 38.820312 90.101562 35.089844 C 90.085938 34.976562 90.277344 34.953125 90.300781 35.0625 C 91.105469 39.234375 91.199219 43.535156 90.695312 47.746094 C 90.359375 50.578125 89.636719 53.304688 88.910156 56.035156 C 88.894531 56.226562 88.886719 56.425781 88.867188 56.617188 C 88.859375 56.695312 88.792969 56.707031 88.738281 56.6875 C 88.417969 57.898438 88.101562 59.109375 87.824219 60.335938 C 86.886719 64.480469 86.546875 69.070312 88.75 72.894531 C 90.5625 76.039062 93.960938 77.828125 97.453125 77.167969 Z M 61.574219 54.019531 C 61.761719 53.621094 61.855469 53.179688 61.839844 52.742188 C 61.828125 52.355469 61.714844 51.976562 61.550781 51.621094 C 61.53125 51.632812 61.515625 51.652344 61.492188 51.65625 C 60.976562 51.753906 60.484375 51.925781 60.007812 52.132812 C 60.105469 52.277344 60.179688 52.4375 60.230469 52.597656 C 60.300781 52.808594 60.351562 53.03125 60.375 53.25 C 60.398438 53.472656 60.421875 53.710938 60.375 53.929688 C 60.332031 54.144531 60.152344 54.339844 59.917969 54.320312 C 59.710938 54.308594 59.578125 54.136719 59.472656 53.976562 C 59.351562 53.789062 59.253906 53.585938 59.175781 53.375 C 59.101562 53.171875 59.046875 52.960938 59.027344 52.742188 C 59.023438 52.710938 59.023438 52.683594 59.023438 52.652344 C 58.699219 52.867188 58.40625 53.128906 58.269531 53.484375 C 58.078125 53.980469 58.210938 54.582031 58.605469 54.941406 C 58.867188 55.175781 59.195312 55.269531 59.53125 55.265625 C 59.871094 55.191406 60.199219 55.089844 60.507812 54.929688 C 60.691406 54.835938 60.863281 54.726562 61.023438 54.597656 C 61.085938 54.546875 61.246094 54.371094 61.386719 54.324219 C 61.453125 54.222656 61.523438 54.128906 61.574219 54.019531 Z M 92.820312 45.042969 C 92.753906 47.398438 92.53125 49.746094 92.195312 52.101562 C 91.496094 57.046875 90.402344 62.074219 90.679688 67.089844 C 90.746094 68.355469 91.050781 69.832031 91.585938 71.242188 C 91.59375 71.238281 91.59375 71.21875 91.609375 71.21875 C 91.824219 71.21875 91.980469 71.390625 92.144531 71.511719 C 92.3125 71.636719 92.492188 71.746094 92.679688 71.839844 C 92.867188 71.933594 93.0625 72.011719 93.265625 72.070312 C 93.453125 72.125 93.65625 72.148438 93.839844 72.21875 C 93.847656 72.191406 93.851562 72.164062 93.863281 72.140625 C 94.210938 71.273438 94.910156 70.5 95.824219 70.222656 C 95.859375 70.210938 95.871094 70.246094 95.898438 70.257812 C 96.175781 70.152344 96.457031 70.046875 96.734375 69.9375 C 95.371094 68.246094 94.523438 66.183594 94.148438 64.050781 C 93.746094 61.742188 94.292969 59.695312 94.40625 57.410156 C 94.523438 55.054688 95.230469 52.777344 95.042969 50.402344 C 94.953125 49.261719 94.707031 48.109375 94.234375 47.0625 C 93.878906 46.269531 93.367188 45.664062 92.820312 45.042969 Z M 93.476562 74.578125 C 93.480469 74.527344 93.484375 74.472656 93.484375 74.421875 C 93.488281 74.148438 93.503906 73.875 93.53125 73.605469 C 93.566406 73.242188 93.640625 72.882812 93.742188 72.53125 C 93.546875 72.539062 93.347656 72.5 93.160156 72.453125 C 92.933594 72.390625 92.714844 72.308594 92.507812 72.207031 C 92.296875 72.105469 92.09375 71.980469 91.910156 71.84375 C 91.867188 71.8125 91.832031 71.773438 91.789062 71.742188 C 92.226562 72.773438 92.785156 73.757812 93.476562 74.578125 Z M 95.640625 70.765625 C 95.632812 70.769531 95.625 70.773438 95.617188 70.777344 C 95.554688 70.796875 95.503906 70.785156 95.464844 70.761719 C 94.886719 71.1875 94.421875 71.722656 94.179688 72.4375 C 94.023438 72.890625 93.949219 73.371094 93.917969 73.847656 C 93.902344 74.082031 93.894531 74.3125 93.890625 74.546875 C 93.890625 74.699219 93.894531 74.863281 93.882812 75.019531 C 94.316406 75.464844 94.789062 75.847656 95.308594 76.140625 C 95.304688 76.113281 95.296875 76.097656 95.296875 76.066406 C 95.296875 75.914062 95.3125 75.761719 95.324219 75.609375 C 95.347656 75.28125 95.371094 74.957031 95.386719 74.632812 C 95.417969 74.019531 95.441406 73.40625 95.4375 72.792969 C 95.4375 72.289062 95.390625 71.777344 95.476562 71.277344 C 95.5 71.125 95.554688 70.933594 95.640625 70.765625 Z M 101.09375 68.265625 C 100.617188 64.90625 103.542969 62.1875 105.292969 59.671875 C 106.472656 57.980469 107.261719 56.109375 107.085938 54.007812 C 106.917969 51.992188 106.015625 50.011719 104.933594 48.324219 C 104.34375 47.410156 103.664062 46.5625 102.972656 45.726562 C 104.328125 49.101562 103.960938 53.089844 102.242188 56.269531 C 101.066406 58.445312 99.167969 60.128906 98.039062 62.320312 C 97.445312 63.476562 96.984375 64.972656 97.414062 66.253906 C 97.773438 67.320312 98.777344 68.242188 99.765625 68.777344 C 100.210938 68.605469 100.648438 68.433594 101.09375 68.265625 Z M 106.261719 66.402344 C 106.007812 62.828125 108.417969 59.898438 110.308594 57.097656 C 111.335938 55.574219 112.34375 53.917969 112.667969 52.082031 C 113.039062 49.960938 112.261719 47.863281 111.179688 46.0625 C 108.082031 40.898438 101.433594 37.601562 100.726562 31.121094 C 100.375 27.855469 102.238281 24.929688 102.742188 21.78125 C 103.253906 18.597656 102.871094 15.289062 101.667969 12.292969 C 99.210938 6.175781 93.199219 1.914062 86.621094 1.445312 C 80.316406 1 74.367188 5.015625 70.664062 9.851562 C 70.804688 9.875 70.949219 9.902344 71.09375 9.921875 C 73.921875 6.886719 78.863281 8.089844 81.9375 10.070312 C 85.09375 12.101562 86.722656 16.574219 86.503906 20.179688 C 86.5 20.257812 86.441406 20.296875 86.382812 20.308594 C 87.265625 21.75 88.089844 23.238281 88.78125 24.839844 C 90.554688 28.925781 91.84375 33.238281 92.453125 37.65625 C 92.765625 39.9375 92.867188 42.207031 92.828125 44.476562 C 94.144531 45.445312 94.882812 47.296875 95.203125 48.808594 C 95.628906 50.808594 95.4375 52.78125 95.097656 54.777344 C 94.878906 56.039062 94.851562 57.304688 94.683594 58.570312 C 94.503906 59.917969 94.25 61.207031 94.339844 62.574219 C 94.511719 65.230469 95.492188 67.632812 96.953125 69.835938 C 96.957031 69.84375 96.953125 69.847656 96.953125 69.855469 C 97.757812 69.542969 98.558594 69.238281 99.363281 68.929688 C 98.039062 68.242188 96.933594 66.964844 96.855469 65.4375 C 96.738281 63.175781 98.117188 61.210938 99.457031 59.523438 C 101.171875 57.367188 102.691406 55.164062 103.195312 52.402344 C 103.679688 49.75 103.207031 47.1875 102.164062 44.75 C 101.847656 44.367188 101.535156 43.984375 101.234375 43.59375 C 100.171875 42.214844 99.269531 40.730469 98.558594 39.144531 C 97.132812 35.949219 96.507812 32.5 96.734375 29.015625 C 96.746094 28.871094 96.964844 28.867188 96.960938 29.015625 C 96.878906 32.90625 97.726562 36.8125 99.5625 40.257812 C 101.300781 43.527344 104.210938 45.960938 105.933594 49.222656 C 107.5 52.191406 108.164062 55.449219 106.496094 58.523438 C 104.6875 61.851562 101.484375 64.109375 101.378906 68.160156 C 103 67.546875 104.628906 66.972656 106.261719 66.402344 Z M 78.136719 140.835938 C 76.8125 138.566406 75.488281 136.296875 74.152344 134.03125 C 74.058594 133.871094 73.8125 134.015625 73.902344 134.175781 C 75.203125 136.460938 76.511719 138.742188 77.824219 141.019531 C 79.128906 143.285156 80.335938 145.667969 81.820312 147.820312 C 81.917969 147.957031 82.117188 147.839844 82.046875 147.6875 C 80.917969 145.328125 79.453125 143.097656 78.136719 140.835938 Z M 78.136719 140.835938 " fill-opacity="1" fill-rule="nonzero"/></g><path fill="#f9f8f4" d="M 58.886719 52.605469 C 58.910156 52.660156 58.921875 52.71875 58.914062 52.777344 C 58.902344 52.835938 58.875 52.886719 58.839844 52.933594 C 58.65625 53.175781 58.34375 53.292969 58.039062 53.332031 C 57.894531 53.351562 57.738281 53.351562 57.609375 53.289062 C 57.476562 53.226562 57.371094 53.082031 57.398438 52.9375 C 57.417969 52.84375 57.484375 52.769531 57.554688 52.699219 C 57.738281 52.519531 58.007812 52.292969 58.28125 52.28125 C 58.492188 52.273438 58.800781 52.402344 58.886719 52.605469 Z M 78.929688 46.007812 C 78.835938 45.8125 78.523438 45.699219 78.308594 45.714844 C 78.039062 45.738281 77.777344 45.976562 77.605469 46.164062 C 77.539062 46.234375 77.472656 46.3125 77.460938 46.410156 C 77.4375 46.554688 77.546875 46.695312 77.683594 46.75 C 77.820312 46.808594 77.972656 46.796875 78.117188 46.773438 C 78.417969 46.722656 78.726562 46.589844 78.898438 46.339844 C 78.929688 46.289062 78.957031 46.238281 78.964844 46.179688 C 78.972656 46.121094 78.957031 46.0625 78.929688 46.007812 Z M 78.929688 46.007812 " fill-opacity="1" fill-rule="nonzero"/></svg>